<svg width="1440" height="1080" viewBox="0 0 1440 1080" fill="none" xmlns="http://www.w3.org/2000/svg">
<g clip-path="url(#clip0_0_174)">
<rect width="1440" height="1080" fill="white"/>
<rect width="1440" height="1080" fill="white"/>
<path d="M426.599 418.545V564H413.673L327.736 442.196H326.599V564H313.318V418.545H326.173L412.395 540.491H413.531V418.545H426.599ZM584.518 491.273C584.518 506.424 581.82 519.611 576.422 530.832C571.024 542.007 563.59 550.671 554.121 556.827C544.698 562.935 533.856 565.989 521.592 565.989C509.329 565.989 498.463 562.935 488.993 556.827C479.571 550.671 472.161 542.007 466.763 530.832C461.412 519.611 458.737 506.424 458.737 491.273C458.737 476.121 461.412 462.958 466.763 451.784C472.161 440.562 479.594 431.898 489.064 425.79C498.534 419.634 509.376 416.557 521.592 416.557C533.856 416.557 544.698 419.634 554.121 425.79C563.59 431.898 571.024 440.562 576.422 451.784C581.82 462.958 584.518 476.121 584.518 491.273ZM571.592 491.273C571.592 478.252 569.414 467.101 565.058 457.821C560.702 448.493 554.76 441.367 547.232 436.443C539.703 431.519 531.157 429.057 521.592 429.057C512.075 429.057 503.553 431.519 496.024 436.443C488.496 441.367 482.53 448.47 478.126 457.75C473.77 467.03 471.592 478.205 471.592 491.273C471.592 504.294 473.77 515.444 478.126 524.724C482.482 534.005 488.425 541.131 495.953 546.102C503.482 551.027 512.028 553.489 521.592 553.489C531.157 553.489 539.703 551.027 547.232 546.102C554.807 541.178 560.773 534.076 565.129 524.795C569.485 515.468 571.64 504.294 571.592 491.273ZM715.502 564H672.888V418.545H718.059C731.932 418.545 743.793 421.434 753.641 427.21C763.537 432.987 771.113 441.273 776.369 452.068C781.624 462.864 784.252 475.813 784.252 490.918C784.252 506.164 781.553 519.256 776.156 530.193C770.805 541.083 762.993 549.44 752.718 555.264C742.491 561.088 730.085 564 715.502 564ZM686.17 552.068H714.721C727.221 552.068 737.685 549.606 746.113 544.682C754.541 539.758 760.862 532.726 765.076 523.588C769.29 514.45 771.397 503.56 771.397 490.918C771.35 478.37 769.266 467.575 765.147 458.531C761.075 449.488 755.014 442.551 746.965 437.722C738.963 432.892 729.067 430.477 717.278 430.477H686.17V552.068ZM809.82 564H795.9L848.812 418.545H863.016L915.928 564H902.008L856.411 435.804H855.417L809.82 564ZM819.835 508.247H891.994V520.179H819.835V508.247ZM915.058 430.477V418.545H1020.53V430.477H974.433V564H961.152V430.477H915.058ZM1033.65 564H1019.73L1072.64 418.545H1086.84L1139.76 564H1125.84L1080.24 435.804H1079.25L1033.65 564ZM1043.66 508.247H1115.82V520.179H1043.66V508.247Z" fill="#F95700"/>
<path d="M343.17 678.09C343.263 678.743 342.96 679.14 342.26 679.28C340.627 679.653 338.807 680.003 336.8 680.33C334.84 680.61 332.763 680.843 330.57 681.03C328.423 681.17 326.207 681.287 323.92 681.38C321.68 681.427 319.463 681.427 317.27 681.38C315.17 681.333 313.723 680.843 312.93 679.91C312.183 678.977 311.81 677.53 311.81 675.57V645.96C311.81 644 312.183 642.693 312.93 642.04C313.677 641.387 315.077 641.06 317.13 641.06H337.01C337.617 641.06 337.92 641.34 337.92 641.9V644.42C337.92 644.98 337.617 645.26 337.01 645.26H318.04C317.387 645.26 316.99 645.353 316.85 645.54C316.71 645.68 316.64 646.1 316.64 646.8V675.22C316.64 675.92 316.757 676.387 316.99 676.62C317.223 676.853 317.667 676.993 318.32 677.04C322.38 677.18 326.347 677.11 330.22 676.83C334.093 676.55 337.85 676.013 341.49 675.22C342.237 675.08 342.68 675.337 342.82 675.99L343.17 678.09ZM347.65 658.77V637.35C347.65 636.697 347.977 636.37 348.63 636.37H351.29C351.943 636.37 352.27 636.697 352.27 637.35V696.08C352.27 696.733 351.943 697.06 351.29 697.06H348.63C347.977 697.06 347.65 696.733 347.65 696.08V662.97H332.95C332.343 662.97 332.04 662.69 332.04 662.13V659.61C332.04 659.05 332.343 658.77 332.95 658.77H347.65ZM364.66 698.74C364.66 699.393 364.333 699.72 363.68 699.72H361.02C360.367 699.72 360.04 699.393 360.04 698.74V636.16C360.04 635.507 360.367 635.18 361.02 635.18H363.68C364.333 635.18 364.66 635.507 364.66 636.16V698.74ZM411.8 661.85C411.8 664.463 411.473 667.1 410.82 669.76C410.213 672.42 409.233 674.823 407.88 676.97C406.527 679.117 404.777 680.89 402.63 682.29C400.53 683.643 397.987 684.32 395 684.32C391.92 684.32 389.307 683.643 387.16 682.29C385.06 680.937 383.357 679.187 382.05 677.04C380.79 674.847 379.88 672.42 379.32 669.76C378.76 667.1 378.48 664.463 378.48 661.85C378.48 659.097 378.76 656.39 379.32 653.73C379.88 651.023 380.79 648.597 382.05 646.45C383.357 644.303 385.06 642.577 387.16 641.27C389.307 639.963 391.92 639.31 395 639.31C397.987 639.31 400.53 639.963 402.63 641.27C404.777 642.577 406.527 644.303 407.88 646.45C409.233 648.55 410.213 650.953 410.82 653.66C411.473 656.32 411.8 659.05 411.8 661.85ZM406.83 661.78C406.83 659.633 406.597 657.463 406.13 655.27C405.71 653.077 405.033 651.117 404.1 649.39C403.167 647.617 401.953 646.193 400.46 645.12C398.967 644 397.147 643.44 395 643.44C392.76 643.44 390.893 644 389.4 645.12C387.953 646.193 386.787 647.617 385.9 649.39C385.013 651.117 384.383 653.077 384.01 655.27C383.637 657.463 383.45 659.633 383.45 661.78C383.45 663.833 383.613 665.957 383.94 668.15C384.313 670.297 384.943 672.28 385.83 674.1C386.717 675.873 387.907 677.343 389.4 678.51C390.893 679.63 392.76 680.19 395 680.19C397.147 680.19 398.967 679.63 400.46 678.51C401.953 677.343 403.167 675.873 404.1 674.1C405.033 672.28 405.71 670.297 406.13 668.15C406.597 665.957 406.83 663.833 406.83 661.78ZM428.18 698.74C428.18 699.393 427.853 699.72 427.2 699.72H424.33C423.677 699.72 423.35 699.393 423.35 698.74V636.16C423.35 635.507 423.677 635.18 424.33 635.18H427.2C427.853 635.18 428.18 635.507 428.18 636.16V698.74ZM470.28 662.97C468.927 663.063 467.457 663.157 465.87 663.25C464.33 663.297 462.767 663.343 461.18 663.39C459.593 663.437 458.053 663.46 456.56 663.46C455.067 663.46 453.713 663.437 452.5 663.39H449.56V676.48C449.56 677.18 449.677 677.67 449.91 677.95C450.143 678.183 450.587 678.3 451.24 678.3C455.16 678.393 459.407 678.277 463.98 677.95C468.553 677.577 472.87 676.993 476.93 676.2C477.723 676.06 478.19 676.317 478.33 676.97L478.68 679C478.773 679.42 478.75 679.723 478.61 679.91C478.47 680.05 478.19 680.167 477.77 680.26C475.81 680.68 473.663 681.053 471.33 681.38C468.997 681.66 466.617 681.917 464.19 682.15C461.763 682.337 459.337 682.477 456.91 682.57C454.53 682.663 452.29 682.687 450.19 682.64C448.09 682.593 446.643 682.103 445.85 681.17C445.103 680.237 444.73 678.79 444.73 676.83V645.33C444.73 643.37 445.103 642.063 445.85 641.41C446.597 640.757 447.997 640.43 450.05 640.43H472.03C472.637 640.43 472.94 640.71 472.94 641.27V643.79C472.94 644.35 472.637 644.63 472.03 644.63H450.96C450.307 644.63 449.91 644.723 449.77 644.91C449.63 645.05 449.56 645.47 449.56 646.17V659.33H452.5C453.667 659.33 454.973 659.33 456.42 659.33C457.913 659.33 459.453 659.307 461.04 659.26C462.627 659.213 464.213 659.167 465.8 659.12C467.387 659.073 468.88 659.003 470.28 658.91C470.56 658.863 470.77 658.933 470.91 659.12C471.097 659.307 471.19 659.517 471.19 659.75V662.13C471.19 662.597 470.887 662.877 470.28 662.97ZM494.01 698.74C494.01 699.393 493.683 699.72 493.03 699.72H490.16C489.507 699.72 489.18 699.393 489.18 698.74V662.9H477.28C476.673 662.9 476.37 662.62 476.37 662.06V659.54C476.37 658.98 476.673 658.7 477.28 658.7H489.18V636.16C489.18 635.507 489.507 635.18 490.16 635.18H493.03C493.683 635.18 494.01 635.507 494.01 636.16V698.74ZM538.98 645.47C538.747 649.483 537.954 653.427 536.6 657.3C535.247 661.173 533.357 664.883 530.93 668.43C528.55 671.93 525.657 675.197 522.25 678.23C518.89 681.217 515.064 683.853 510.77 686.14C510.164 686.467 509.72 686.397 509.44 685.93L507.9 683.48C507.574 682.92 507.667 682.523 508.18 682.29C512.147 680.237 515.647 677.903 518.68 675.29C521.76 672.63 524.374 669.76 526.52 666.68C528.714 663.6 530.44 660.357 531.7 656.95C532.96 653.543 533.754 650.043 534.08 646.45C534.174 645.75 534.08 645.283 533.8 645.05C533.52 644.77 533.054 644.63 532.4 644.63H510.7C510.14 644.63 509.86 644.327 509.86 643.72V641.27C509.86 640.71 510.14 640.43 510.7 640.43H533.73C535.924 640.43 537.37 640.85 538.07 641.69C538.77 642.483 539.074 643.743 538.98 645.47ZM557.39 698.74C557.39 699.393 557.064 699.72 556.41 699.72H553.54C552.887 699.72 552.56 699.393 552.56 698.74V636.16C552.56 635.507 552.887 635.18 553.54 635.18H556.41C557.064 635.18 557.39 635.507 557.39 636.16V660.94H567.05C567.33 660.94 567.564 661.033 567.75 661.22C567.984 661.36 568.1 661.57 568.1 661.85V664.23C568.1 664.463 567.984 664.673 567.75 664.86C567.564 665.047 567.33 665.14 567.05 665.14H557.39V698.74ZM638.079 644.49C637.053 645.563 635.653 646.683 633.879 647.85C632.106 649.017 630.099 650.183 627.859 651.35C629.259 651.817 630.823 652.307 632.549 652.82C634.323 653.333 636.096 653.823 637.869 654.29C639.643 654.757 641.346 655.2 642.979 655.62C644.613 656.04 646.036 656.367 647.249 656.6C647.856 656.74 648.066 657.067 647.879 657.58L646.899 659.89C646.666 660.403 646.246 660.59 645.639 660.45C644.333 660.17 642.723 659.797 640.809 659.33C638.943 658.817 636.936 658.28 634.789 657.72C632.689 657.113 630.566 656.483 628.419 655.83C626.273 655.177 624.266 654.523 622.399 653.87C620.346 654.803 618.223 655.69 616.029 656.53C613.883 657.323 611.759 658.047 609.659 658.7C607.559 659.353 605.506 659.937 603.499 660.45C601.539 660.917 599.719 661.267 598.039 661.5C597.666 661.593 597.386 661.57 597.199 661.43C597.013 661.243 596.873 661.01 596.779 660.73L596.149 658.63C595.963 657.93 596.149 657.557 596.709 657.51C599.509 657.09 602.589 656.39 605.949 655.41C609.356 654.383 612.716 653.24 616.029 651.98C619.343 650.673 622.446 649.297 625.339 647.85C628.279 646.357 630.659 644.933 632.479 643.58C632.993 643.207 633.296 642.81 633.389 642.39C633.483 641.923 633.156 641.69 632.409 641.69H602.169C601.563 641.69 601.259 641.387 601.259 640.78V638.33C601.259 637.77 601.563 637.49 602.169 637.49H634.159C641.159 637.49 642.466 639.823 638.079 644.49ZM651.589 670.53C651.823 670.53 652.056 670.623 652.289 670.81C652.523 670.95 652.639 671.16 652.639 671.44V673.82C652.639 674.053 652.523 674.263 652.289 674.45C652.056 674.637 651.823 674.73 651.589 674.73H592.089C591.809 674.73 591.553 674.637 591.319 674.45C591.133 674.263 591.039 674.053 591.039 673.82V671.44C591.039 671.16 591.133 670.95 591.319 670.81C591.553 670.623 591.809 670.53 592.089 670.53H619.389V661.08C619.389 660.427 619.716 660.1 620.369 660.1H623.239C623.893 660.1 624.219 660.427 624.219 661.08V670.53H651.589ZM644.869 697.62C644.869 697.9 644.753 698.11 644.519 698.25C644.286 698.39 644.053 698.46 643.819 698.46H606.019C603.826 698.46 602.379 697.993 601.679 697.06C601.026 696.173 600.699 694.773 600.699 692.86V680.68C600.699 680.027 601.026 679.7 601.679 679.7H604.549C605.203 679.7 605.529 680.027 605.529 680.68V692.79C605.529 693.443 605.623 693.84 605.809 693.98C606.043 694.167 606.486 694.26 607.139 694.26H643.819C644.053 694.26 644.286 694.33 644.519 694.47C644.753 694.657 644.869 694.867 644.869 695.1V697.62ZM699.92 661.64H708.74V636.16C708.74 635.507 709.066 635.18 709.72 635.18H712.38C713.033 635.18 713.36 635.507 713.36 636.16V698.74C713.36 699.393 713.033 699.72 712.38 699.72H709.72C709.066 699.72 708.74 699.393 708.74 698.74V665.84H699.92V696.08C699.92 696.733 699.593 697.06 698.94 697.06H696.28C695.626 697.06 695.3 696.733 695.3 696.08V637.35C695.3 636.697 695.626 636.37 696.28 636.37H698.94C699.593 636.37 699.92 636.697 699.92 637.35V661.64ZM685.57 646.45C684.916 649.11 684.076 651.7 683.05 654.22C682.07 656.693 680.926 659.143 679.62 661.57C680.926 664.37 682.653 667.217 684.8 670.11C686.946 673.003 689.303 675.64 691.87 678.02C692.103 678.253 692.196 678.487 692.15 678.72C692.15 678.953 692.056 679.163 691.87 679.35L690.12 681.17C689.933 681.357 689.746 681.497 689.56 681.59C689.373 681.637 689.093 681.473 688.72 681.1C687.693 680.12 686.62 679.023 685.5 677.81C684.426 676.55 683.376 675.267 682.35 673.96C681.323 672.607 680.343 671.253 679.41 669.9C678.523 668.547 677.73 667.263 677.03 666.05C674.883 669.363 672.433 672.49 669.68 675.43C666.973 678.37 663.963 681.077 660.65 683.55C660.416 683.69 660.16 683.807 659.88 683.9C659.646 683.947 659.46 683.877 659.32 683.69L657.5 681.52C657.313 681.287 657.243 681.053 657.29 680.82C657.383 680.587 657.546 680.4 657.78 680.26C663.613 675.687 668.373 670.693 672.06 665.28C675.746 659.867 678.476 653.707 680.25 646.8C680.436 646.147 680.436 645.68 680.25 645.4C680.11 645.12 679.713 644.98 679.06 644.98H661.28C660.72 644.98 660.44 644.677 660.44 644.07V641.62C660.44 641.06 660.766 640.78 661.42 640.78H680.95C683.376 640.78 684.893 641.177 685.5 641.97C686.106 642.763 686.13 644.257 685.57 646.45ZM759.38 673.05C759.38 674.963 758.983 676.737 758.19 678.37C757.443 680.003 756.393 681.45 755.04 682.71C753.686 683.923 752.076 684.88 750.21 685.58C748.343 686.28 746.336 686.63 744.19 686.63C741.996 686.63 739.966 686.28 738.1 685.58C736.28 684.88 734.693 683.923 733.34 682.71C731.986 681.497 730.913 680.073 730.12 678.44C729.373 676.76 729 674.963 729 673.05C729 671.09 729.373 669.293 730.12 667.66C730.913 665.98 731.986 664.533 733.34 663.32C734.693 662.107 736.28 661.15 738.1 660.45C739.966 659.75 741.996 659.4 744.19 659.4C746.336 659.4 748.343 659.773 750.21 660.52C752.076 661.22 753.686 662.177 755.04 663.39C756.393 664.603 757.443 666.05 758.19 667.73C758.983 669.41 759.38 671.183 759.38 673.05ZM774.5 698.74C774.5 699.393 774.173 699.72 773.52 699.72H770.65C769.996 699.72 769.67 699.393 769.67 698.74V636.16C769.67 635.507 769.996 635.18 770.65 635.18H773.52C774.173 635.18 774.5 635.507 774.5 636.16V661.99H784.16C784.44 661.99 784.673 662.083 784.86 662.27C785.093 662.41 785.21 662.62 785.21 662.9V665.28C785.21 665.513 785.093 665.723 784.86 665.91C784.673 666.097 784.44 666.19 784.16 666.19H774.5V698.74ZM754.62 673.05C754.62 671.697 754.363 670.437 753.85 669.27C753.336 668.103 752.613 667.1 751.68 666.26C750.746 665.373 749.626 664.697 748.32 664.23C747.06 663.717 745.683 663.46 744.19 663.46C742.696 663.46 741.296 663.717 739.99 664.23C738.73 664.697 737.633 665.373 736.7 666.26C735.766 667.1 735.02 668.103 734.46 669.27C733.946 670.437 733.69 671.697 733.69 673.05C733.69 674.403 733.946 675.663 734.46 676.83C735.02 677.95 735.766 678.953 736.7 679.84C737.633 680.68 738.73 681.357 739.99 681.87C741.296 682.337 742.696 682.57 744.19 682.57C745.683 682.57 747.06 682.337 748.32 681.87C749.626 681.357 750.746 680.68 751.68 679.84C752.613 679 753.336 677.997 753.85 676.83C754.363 675.663 754.62 674.403 754.62 673.05ZM764.63 653.52C764.63 654.127 764.28 654.43 763.58 654.43H724.94C724.706 654.43 724.473 654.337 724.24 654.15C724.053 653.963 723.96 653.73 723.96 653.45V651.21C723.96 650.93 724.053 650.697 724.24 650.51C724.473 650.323 724.706 650.23 724.94 650.23H763.58C764.28 650.23 764.63 650.533 764.63 651.14V653.52ZM754.41 641.62C754.41 642.273 754.06 642.6 753.36 642.6H734.18C733.946 642.6 733.713 642.53 733.48 642.39C733.293 642.203 733.2 641.97 733.2 641.69V639.31C733.2 639.03 733.293 638.797 733.48 638.61C733.666 638.423 733.876 638.33 734.11 638.33H753.36C754.06 638.33 754.41 638.657 754.41 639.31V641.62ZM828.29 680.54C828.15 680.773 827.963 680.913 827.73 680.96C827.543 681.007 827.263 680.89 826.89 680.61C825.77 679.77 824.58 678.813 823.32 677.74C822.06 676.62 820.823 675.453 819.61 674.24C818.396 672.98 817.206 671.697 816.04 670.39C814.873 669.037 813.8 667.707 812.82 666.4C810.486 669.34 807.826 672.163 804.84 674.87C801.853 677.53 798.446 680.19 794.62 682.85C794.386 682.99 794.153 683.107 793.92 683.2C793.686 683.247 793.5 683.177 793.36 682.99L791.68 680.82C791.493 680.587 791.423 680.353 791.47 680.12C791.516 679.84 791.633 679.63 791.82 679.49C799.286 674.217 805.096 668.873 809.25 663.46C813.45 658.047 816.366 652.4 818 646.52C818.186 645.867 818.186 645.4 818 645.12C817.86 644.793 817.463 644.63 816.81 644.63H795.6C795.04 644.63 794.76 644.327 794.76 643.72V641.27C794.76 640.71 795.086 640.43 795.74 640.43H818.7C821.126 640.43 822.666 640.85 823.32 641.69C823.973 642.53 823.973 644.023 823.32 646.17C821.5 652.143 818.933 657.627 815.62 662.62C816.693 664.113 817.836 665.583 819.05 667.03C820.263 668.477 821.476 669.853 822.69 671.16C823.903 672.42 825.116 673.587 826.33 674.66C827.543 675.687 828.686 676.55 829.76 677.25C829.993 677.437 830.11 677.647 830.11 677.88C830.11 678.113 830.04 678.323 829.9 678.51L828.29 680.54ZM842.78 698.74C842.78 699.393 842.453 699.72 841.8 699.72H838.93C838.276 699.72 837.95 699.393 837.95 698.74V636.16C837.95 635.507 838.276 635.18 838.93 635.18H841.8C842.453 635.18 842.78 635.507 842.78 636.16V698.74ZM910.519 653.73C910.519 656.11 910.099 658.28 909.259 660.24C908.419 662.2 907.252 663.88 905.759 665.28C904.266 666.68 902.516 667.777 900.509 668.57C898.502 669.363 896.356 669.76 894.069 669.76C891.829 669.76 889.729 669.387 887.769 668.64C885.809 667.847 884.082 666.75 882.589 665.35C881.142 663.903 879.999 662.2 879.159 660.24C878.319 658.28 877.899 656.11 877.899 653.73C877.899 651.21 878.319 648.97 879.159 647.01C879.999 645.003 881.142 643.323 882.589 641.97C884.082 640.57 885.809 639.497 887.769 638.75C889.729 638.003 891.829 637.63 894.069 637.63C896.216 637.63 898.269 638.003 900.229 638.75C902.236 639.45 903.986 640.5 905.479 641.9C907.019 643.253 908.232 644.933 909.119 646.94C910.052 648.947 910.519 651.21 910.519 653.73ZM905.759 653.66C905.759 651.793 905.432 650.16 904.779 648.76C904.172 647.313 903.332 646.1 902.259 645.12C901.186 644.14 899.926 643.417 898.479 642.95C897.079 642.437 895.609 642.18 894.069 642.18C892.436 642.18 890.919 642.437 889.519 642.95C888.166 643.417 886.976 644.14 885.949 645.12C884.922 646.1 884.106 647.313 883.499 648.76C882.939 650.16 882.659 651.793 882.659 653.66C882.659 655.433 882.939 657.043 883.499 658.49C884.059 659.89 884.852 661.103 885.879 662.13C886.906 663.157 888.096 663.95 889.449 664.51C890.849 665.023 892.389 665.28 894.069 665.28C895.609 665.28 897.079 665.023 898.479 664.51C899.926 663.95 901.186 663.157 902.259 662.13C903.332 661.103 904.172 659.89 904.779 658.49C905.432 657.043 905.759 655.433 905.759 653.66ZM928.789 692.3C928.789 693.513 928.509 694.633 927.949 695.66C927.436 696.687 926.689 697.573 925.709 698.32C924.729 699.067 923.562 699.65 922.209 700.07C920.856 700.537 919.339 700.77 917.659 700.77C915.979 700.77 914.462 700.537 913.109 700.07C911.756 699.65 910.589 699.043 909.609 698.25C908.629 697.503 907.882 696.617 907.369 695.59C906.856 694.563 906.599 693.467 906.599 692.3C906.599 691.133 906.856 690.037 907.369 689.01C907.882 687.983 908.629 687.097 909.609 686.35C910.589 685.603 911.756 685.02 913.109 684.6C914.462 684.133 915.979 683.9 917.659 683.9C919.339 683.9 920.856 684.133 922.209 684.6C923.562 685.02 924.729 685.627 925.709 686.42C926.689 687.167 927.436 688.053 927.949 689.08C928.509 690.06 928.789 691.133 928.789 692.3ZM925.779 667.03C925.779 667.73 925.452 668.08 924.799 668.08H921.929C921.276 668.08 920.949 667.73 920.949 667.03V636.16C920.949 635.507 921.276 635.18 921.929 635.18H924.799C925.452 635.18 925.779 635.507 925.779 636.16V652.05H935.439C935.719 652.05 935.952 652.143 936.139 652.33C936.372 652.47 936.489 652.68 936.489 652.96V655.34C936.489 655.573 936.372 655.783 936.139 655.97C935.952 656.157 935.719 656.25 935.439 656.25H925.779V667.03ZM905.829 697.34C905.876 697.807 905.572 698.133 904.919 698.32C904.686 698.413 904.336 698.483 903.869 698.53C903.402 698.623 902.912 698.693 902.399 698.74C901.886 698.787 901.396 698.833 900.929 698.88C900.462 698.927 900.089 698.95 899.809 698.95C899.156 698.997 898.386 699.02 897.499 699.02C896.612 699.067 895.702 699.09 894.769 699.09C893.836 699.137 892.902 699.16 891.969 699.16C891.036 699.16 890.196 699.16 889.449 699.16C887.256 699.16 885.809 698.74 885.109 697.9C884.456 697.107 884.129 695.753 884.129 693.84V676.55C884.129 675.897 884.456 675.57 885.109 675.57H887.979C888.632 675.57 888.959 675.897 888.959 676.55V693.49C888.959 694.143 889.052 694.54 889.239 694.68C889.472 694.867 889.916 694.96 890.569 694.96C891.176 694.96 891.899 694.96 892.739 694.96C893.626 694.96 894.512 694.937 895.399 694.89C896.286 694.89 897.126 694.867 897.919 694.82C898.759 694.82 899.459 694.797 900.019 694.75C900.672 694.703 901.442 694.61 902.329 694.47C903.216 694.377 903.892 694.26 904.359 694.12C905.012 693.98 905.386 694.213 905.479 694.82L905.829 697.34ZM930.749 681.24C930.749 681.707 930.492 681.94 929.979 681.94H904.499C904.359 681.94 904.196 681.893 904.009 681.8C903.869 681.66 903.799 681.473 903.799 681.24V678.58C903.799 678.347 903.869 678.183 904.009 678.09C904.196 677.95 904.359 677.88 904.499 677.88H929.979C930.492 677.88 930.749 678.09 930.749 678.51V681.24ZM924.169 692.44C924.169 691.087 923.609 689.943 922.489 689.01C921.369 688.03 919.759 687.54 917.659 687.54C915.559 687.54 913.926 688.007 912.759 688.94C911.639 689.873 911.079 691.04 911.079 692.44C911.079 693.793 911.639 694.913 912.759 695.8C913.926 696.687 915.559 697.13 917.659 697.13C919.759 697.13 921.369 696.687 922.489 695.8C923.609 694.913 924.169 693.793 924.169 692.44ZM925.569 674.1C925.569 674.613 925.289 674.87 924.729 674.87H910.029C909.889 674.87 909.726 674.823 909.539 674.73C909.399 674.59 909.329 674.403 909.329 674.17V671.58C909.329 671.067 909.562 670.81 910.029 670.81H924.729C925.289 670.81 925.569 671.067 925.569 671.58V674.1ZM954.719 699.3C953.599 699.3 952.689 699.23 951.989 699.09C951.336 698.95 950.822 698.67 950.449 698.25C950.076 697.877 949.819 697.363 949.679 696.71C949.539 696.103 949.469 695.31 949.469 694.33V674.52C949.469 674.287 949.562 674.1 949.749 673.96C949.936 673.773 950.146 673.68 950.379 673.68H953.459C953.692 673.68 953.879 673.773 954.019 673.96C954.206 674.147 954.299 674.333 954.299 674.52V682.08H986.779V674.59C986.779 674.357 986.849 674.147 986.989 673.96C987.176 673.773 987.386 673.68 987.619 673.68H990.699C990.932 673.68 991.142 673.773 991.329 673.96C991.516 674.1 991.609 674.287 991.609 674.52V694.82C991.609 696.593 991.236 697.783 990.489 698.39C989.742 698.997 988.342 699.3 986.289 699.3H954.719ZM954.299 686.28V693.42C954.299 694.12 954.416 694.563 954.649 694.75C954.882 694.983 955.326 695.1 955.979 695.1H985.099C985.752 695.1 986.196 694.983 986.429 694.75C986.662 694.563 986.779 694.12 986.779 693.42V686.28H954.299ZM973.059 636.44C972.966 636.72 972.896 637 972.849 637.28C972.849 637.513 972.802 637.747 972.709 637.98C972.849 638.587 973.036 639.17 973.269 639.73C973.549 640.29 973.852 640.803 974.179 641.27C975.159 642.81 976.419 644.28 977.959 645.68C979.499 647.033 981.179 648.27 982.999 649.39C984.866 650.463 986.826 651.397 988.879 652.19C990.979 652.983 993.079 653.59 995.179 654.01C995.459 654.103 995.622 654.267 995.669 654.5C995.716 654.733 995.692 654.967 995.599 655.2L994.409 657.58C994.316 657.813 994.176 658 993.989 658.14C993.849 658.233 993.546 658.233 993.079 658.14C990.699 657.58 988.342 656.81 986.009 655.83C983.722 654.803 981.576 653.637 979.569 652.33C977.562 650.977 975.766 649.53 974.179 647.99C972.592 646.45 971.332 644.91 970.399 643.37C968.532 646.59 965.802 649.413 962.209 651.84C958.616 654.267 953.902 656.46 948.069 658.42C947.322 658.653 946.856 658.537 946.669 658.07L945.479 655.55C945.386 655.317 945.362 655.06 945.409 654.78C945.502 654.5 945.712 654.313 946.039 654.22C949.446 653.193 952.432 652.073 954.999 650.86C957.612 649.647 959.829 648.317 961.649 646.87C963.469 645.423 964.916 643.813 965.989 642.04C967.109 640.22 967.856 638.19 968.229 635.95C968.369 635.343 968.672 635.063 969.139 635.11L972.289 635.46C972.522 635.46 972.732 635.553 972.919 635.74C973.106 635.88 973.152 636.113 973.059 636.44ZM1000.36 663.81C1000.59 663.81 1000.83 663.903 1001.06 664.09C1001.29 664.23 1001.41 664.44 1001.41 664.72V667.1C1001.41 667.333 1001.29 667.543 1001.06 667.73C1000.83 667.917 1000.59 668.01 1000.36 668.01H940.859C940.579 668.01 940.322 667.917 940.089 667.73C939.902 667.543 939.809 667.333 939.809 667.1V664.65C939.809 664.37 939.902 664.16 940.089 664.02C940.322 663.88 940.579 663.81 940.859 663.81H1000.36ZM1059.89 698.74C1059.89 699.393 1059.56 699.72 1058.91 699.72H1056.04C1055.39 699.72 1055.06 699.393 1055.06 698.74V636.16C1055.06 635.507 1055.39 635.18 1056.04 635.18H1058.91C1059.56 635.18 1059.89 635.507 1059.89 636.16V698.74ZM1017.4 674.17C1017.4 674.87 1017.52 675.337 1017.75 675.57C1017.98 675.803 1018.43 675.943 1019.08 675.99C1021.37 676.083 1023.79 676.107 1026.36 676.06C1028.97 675.967 1031.59 675.827 1034.2 675.64C1036.81 675.407 1039.36 675.127 1041.83 674.8C1044.35 674.473 1046.68 674.1 1048.83 673.68C1049.62 673.493 1050.09 673.773 1050.23 674.52L1050.58 676.48C1050.72 677.133 1050.42 677.553 1049.67 677.74C1048.08 678.113 1046.03 678.463 1043.51 678.79C1041.04 679.117 1038.35 679.42 1035.46 679.7C1032.57 679.933 1029.6 680.12 1026.57 680.26C1023.54 680.353 1020.71 680.377 1018.1 680.33C1016 680.283 1014.55 679.793 1013.76 678.86C1012.97 677.927 1012.57 676.48 1012.57 674.52V640.08C1012.57 639.427 1012.9 639.1 1013.55 639.1H1016.42C1017.07 639.1 1017.4 639.427 1017.4 640.08V674.17ZM1113.33 677.11C1113.42 677.763 1113.12 678.16 1112.42 678.3C1110.69 678.72 1108.5 679.117 1105.84 679.49C1103.23 679.863 1100.45 680.19 1097.51 680.47C1094.62 680.75 1091.75 680.96 1088.9 681.1C1086.05 681.24 1083.58 681.287 1081.48 681.24C1079.38 681.193 1077.93 680.703 1077.14 679.77C1076.39 678.837 1076.02 677.39 1076.02 675.43V645.33C1076.02 643.37 1076.39 642.063 1077.14 641.41C1077.89 640.757 1079.29 640.43 1081.34 640.43H1105.42C1106.03 640.43 1106.33 640.71 1106.33 641.27V643.79C1106.33 644.35 1106.03 644.63 1105.42 644.63H1082.25C1081.6 644.63 1081.2 644.723 1081.06 644.91C1080.92 645.05 1080.85 645.47 1080.85 646.17V675.08C1080.85 675.78 1080.97 676.247 1081.2 676.48C1081.43 676.713 1081.88 676.853 1082.53 676.9C1084.77 676.993 1087.13 676.993 1089.6 676.9C1092.12 676.76 1094.64 676.573 1097.16 676.34C1099.73 676.06 1102.22 675.757 1104.65 675.43C1107.12 675.057 1109.46 674.66 1111.65 674.24C1112.4 674.1 1112.84 674.357 1112.98 675.01L1113.33 677.11ZM1123.27 698.74C1123.27 699.393 1122.94 699.72 1122.29 699.72H1119.42C1118.77 699.72 1118.44 699.393 1118.44 698.74V636.16C1118.44 635.507 1118.77 635.18 1119.42 635.18H1122.29C1122.94 635.18 1123.27 635.507 1123.27 636.16V661.64H1132.93C1133.21 661.64 1133.44 661.733 1133.63 661.92C1133.86 662.06 1133.98 662.27 1133.98 662.55V664.93C1133.98 665.163 1133.86 665.373 1133.63 665.56C1133.44 665.747 1133.21 665.84 1132.93 665.84H1123.27V698.74ZM1142.76 692.72C1142.76 691.74 1143.09 690.923 1143.74 690.27C1144.44 689.57 1145.28 689.22 1146.26 689.22C1147.24 689.22 1148.06 689.57 1148.71 690.27C1149.41 690.923 1149.76 691.74 1149.76 692.72C1149.76 693.7 1149.41 694.517 1148.71 695.17C1148.06 695.87 1147.24 696.22 1146.26 696.22C1145.28 696.22 1144.44 695.87 1143.74 695.17C1143.09 694.517 1142.76 693.7 1142.76 692.72Z" fill="#201F1F"/>
</g>
<defs>
<clipPath id="clip0_0_174">
<rect width="1440" height="1080" fill="white"/>
</clipPath>
</defs>
</svg>
