<svg width="1440" height="1080" viewBox="0 0 1440 1080" fill="none" xmlns="http://www.w3.org/2000/svg">
<g clip-path="url(#clip0_0_174)">
<rect width="1440" height="1080" fill="white"/>
<rect width="1440" height="1080" fill="white"/>
<path d="M493.853 610V559.091H514.883C518.694 559.091 521.984 559.837 524.751 561.328C527.536 562.803 529.682 564.866 531.19 567.518C532.698 570.153 533.452 573.219 533.452 576.715C533.452 580.228 532.681 583.303 531.14 585.938C529.615 588.556 527.436 590.586 524.602 592.028C521.768 593.469 518.404 594.19 514.51 594.19H501.534V584.496H512.223C514.079 584.496 515.629 584.173 516.871 583.526C518.131 582.88 519.084 581.977 519.73 580.817C520.376 579.64 520.7 578.273 520.7 576.715C520.7 575.141 520.376 573.782 519.73 572.638C519.084 571.478 518.131 570.584 516.871 569.954C515.612 569.324 514.063 569.009 512.223 569.009H506.158V610H493.853ZM548.913 610.646C546.477 610.646 544.315 610.24 542.425 609.428C540.553 608.6 539.07 607.357 537.976 605.7C536.899 604.026 536.36 601.929 536.36 599.411C536.36 597.289 536.733 595.5 537.479 594.041C538.224 592.583 539.252 591.398 540.561 590.487C541.87 589.575 543.378 588.887 545.085 588.423C546.792 587.943 548.615 587.62 550.554 587.454C552.725 587.255 554.473 587.048 555.799 586.832C557.125 586.6 558.086 586.277 558.683 585.863C559.296 585.432 559.602 584.827 559.602 584.048V583.924C559.602 582.648 559.163 581.662 558.285 580.966C557.406 580.27 556.222 579.922 554.73 579.922C553.123 579.922 551.83 580.27 550.852 580.966C549.875 581.662 549.253 582.623 548.988 583.849L537.777 583.452C538.108 581.132 538.962 579.06 540.337 577.237C541.729 575.398 543.635 573.956 546.055 572.912C548.491 571.851 551.416 571.321 554.83 571.321C557.266 571.321 559.511 571.611 561.566 572.191C563.621 572.754 565.411 573.583 566.935 574.677C568.46 575.754 569.637 577.08 570.465 578.654C571.31 580.228 571.733 582.027 571.733 584.048V610H560.298V604.68H560C559.321 605.973 558.451 607.067 557.39 607.962C556.346 608.857 555.111 609.528 553.686 609.975C552.277 610.423 550.687 610.646 548.913 610.646ZM552.667 602.692C553.976 602.692 555.153 602.427 556.197 601.896C557.257 601.366 558.103 600.637 558.732 599.709C559.362 598.764 559.677 597.67 559.677 596.428V592.798C559.329 592.981 558.906 593.146 558.409 593.295C557.929 593.445 557.398 593.585 556.818 593.718C556.238 593.851 555.642 593.967 555.028 594.066C554.415 594.165 553.827 594.257 553.263 594.339C552.12 594.522 551.142 594.804 550.33 595.185C549.535 595.566 548.922 596.063 548.491 596.676C548.076 597.273 547.869 597.985 547.869 598.814C547.869 600.073 548.317 601.035 549.212 601.697C550.123 602.36 551.275 602.692 552.667 602.692ZM596.964 625.114C593.335 625.114 590.227 624.608 587.642 623.597C585.057 622.586 583.027 621.203 581.552 619.446C580.077 617.689 579.19 615.701 578.892 613.48L590.401 612.834C590.617 613.613 591.014 614.292 591.594 614.872C592.191 615.452 592.962 615.9 593.906 616.214C594.867 616.529 595.994 616.687 597.287 616.687C599.325 616.687 601.007 616.19 602.333 615.195C603.675 614.218 604.347 612.502 604.347 610.05V603.338H603.924C603.443 604.515 602.714 605.567 601.737 606.495C600.759 607.423 599.541 608.152 598.082 608.683C596.641 609.213 594.983 609.478 593.111 609.478C590.327 609.478 587.775 608.832 585.455 607.539C583.151 606.23 581.303 604.208 579.911 601.474C578.536 598.723 577.848 595.185 577.848 590.859C577.848 586.402 578.561 582.731 579.986 579.847C581.411 576.947 583.275 574.801 585.579 573.409C587.899 572.017 590.393 571.321 593.061 571.321C595.066 571.321 596.781 571.669 598.207 572.365C599.648 573.045 600.833 573.923 601.761 575C602.689 576.077 603.394 577.196 603.874 578.356H604.222V571.818H616.328V610.149C616.328 613.381 615.516 616.107 613.892 618.327C612.268 620.548 609.998 622.23 607.081 623.374C604.164 624.534 600.792 625.114 596.964 625.114ZM597.337 600.629C598.812 600.629 600.071 600.239 601.115 599.46C602.159 598.681 602.963 597.563 603.526 596.104C604.09 594.646 604.371 592.898 604.371 590.859C604.371 588.788 604.09 587.006 603.526 585.515C602.979 584.007 602.176 582.847 601.115 582.035C600.071 581.223 598.812 580.817 597.337 580.817C595.829 580.817 594.553 581.231 593.509 582.06C592.464 582.888 591.669 584.057 591.122 585.565C590.592 587.056 590.327 588.821 590.327 590.859C590.327 592.898 590.6 594.646 591.147 596.104C591.694 597.563 592.481 598.681 593.509 599.46C594.553 600.239 595.829 600.629 597.337 600.629ZM641.926 610.721C637.932 610.721 634.485 609.934 631.585 608.359C628.701 606.768 626.481 604.506 624.923 601.573C623.382 598.623 622.611 595.118 622.611 591.058C622.611 587.114 623.39 583.667 624.948 580.717C626.505 577.751 628.701 575.447 631.535 573.807C634.369 572.15 637.708 571.321 641.553 571.321C644.271 571.321 646.756 571.744 649.01 572.589C651.264 573.434 653.211 574.685 654.852 576.342C656.492 578 657.768 580.046 658.68 582.482C659.591 584.902 660.047 587.678 660.047 590.81V593.842H626.862V586.783H648.737C648.72 585.49 648.414 584.338 647.817 583.327C647.22 582.317 646.4 581.529 645.356 580.966C644.329 580.386 643.144 580.096 641.801 580.096C640.442 580.096 639.224 580.402 638.147 581.016C637.07 581.612 636.217 582.433 635.587 583.477C634.957 584.504 634.626 585.672 634.593 586.982V594.165C634.593 595.723 634.899 597.09 635.512 598.267C636.125 599.427 636.995 600.33 638.122 600.977C639.249 601.623 640.592 601.946 642.149 601.946C643.227 601.946 644.204 601.797 645.083 601.499C645.961 601.2 646.715 600.761 647.345 600.181C647.974 599.601 648.447 598.888 648.762 598.043L659.923 598.366C659.459 600.869 658.44 603.048 656.865 604.904C655.307 606.744 653.261 608.177 650.725 609.205C648.19 610.215 645.257 610.721 641.926 610.721ZM693.45 588.224V610H681.294V571.818H692.853V578.828H693.276C694.121 576.491 695.563 574.66 697.601 573.335C699.64 571.992 702.067 571.321 704.885 571.321C707.569 571.321 709.898 571.926 711.87 573.136C713.858 574.329 715.4 576.003 716.493 578.157C717.604 580.295 718.15 582.797 718.134 585.664V610H705.978V588.05C705.995 585.929 705.456 584.272 704.363 583.079C703.285 581.886 701.786 581.289 699.863 581.289C698.587 581.289 697.46 581.571 696.483 582.134C695.521 582.681 694.776 583.468 694.245 584.496C693.732 585.523 693.467 586.766 693.45 588.224ZM743.483 610.721C739.472 610.721 736.025 609.901 733.142 608.26C730.275 606.603 728.063 604.299 726.505 601.349C724.964 598.383 724.193 594.944 724.193 591.033C724.193 587.106 724.964 583.667 726.505 580.717C728.063 577.751 730.275 575.447 733.142 573.807C736.025 572.15 739.472 571.321 743.483 571.321C747.493 571.321 750.932 572.15 753.799 573.807C756.682 575.447 758.895 577.751 760.436 580.717C761.994 583.667 762.773 587.106 762.773 591.033C762.773 594.944 761.994 598.383 760.436 601.349C758.895 604.299 756.682 606.603 753.799 608.26C750.932 609.901 747.493 610.721 743.483 610.721ZM743.557 601.548C745.016 601.548 746.25 601.101 747.261 600.206C748.272 599.311 749.043 598.068 749.573 596.477C750.12 594.886 750.393 593.047 750.393 590.959C750.393 588.838 750.12 586.982 749.573 585.391C749.043 583.8 748.272 582.557 747.261 581.662C746.25 580.767 745.016 580.32 743.557 580.32C742.049 580.32 740.773 580.767 739.729 581.662C738.702 582.557 737.915 583.8 737.368 585.391C736.837 586.982 736.572 588.838 736.572 590.959C736.572 593.047 736.837 594.886 737.368 596.477C737.915 598.068 738.702 599.311 739.729 600.206C740.773 601.101 742.049 601.548 743.557 601.548ZM790.551 571.818V580.767H766.464V571.818H790.551ZM771.51 562.67H783.666V597.994C783.666 598.739 783.782 599.344 784.014 599.808C784.262 600.256 784.619 600.579 785.083 600.778C785.547 600.96 786.102 601.051 786.748 601.051C787.212 601.051 787.701 601.01 788.215 600.927C788.745 600.827 789.143 600.745 789.408 600.678L791.247 609.453C790.667 609.619 789.847 609.826 788.786 610.075C787.742 610.323 786.491 610.481 785.033 610.547C782.182 610.679 779.738 610.348 777.7 609.553C775.678 608.741 774.128 607.481 773.051 605.774C771.991 604.067 771.477 601.921 771.51 599.336V562.67ZM833.493 571.818V580.767H808.934V571.818H833.493ZM814.055 610V569.879C814.055 566.929 814.61 564.485 815.72 562.546C816.83 560.591 818.372 559.132 820.344 558.171C822.316 557.193 824.594 556.705 827.18 556.705C828.87 556.705 830.461 556.837 831.952 557.102C833.46 557.351 834.579 557.575 835.308 557.773L833.369 566.673C832.922 566.523 832.375 566.399 831.729 566.3C831.099 566.2 830.502 566.151 829.939 566.151C828.514 566.151 827.536 566.465 827.006 567.095C826.475 567.725 826.21 568.587 826.21 569.68V610H814.055ZM855.934 610.721C851.924 610.721 848.477 609.901 845.593 608.26C842.726 606.603 840.514 604.299 838.956 601.349C837.415 598.383 836.644 594.944 836.644 591.033C836.644 587.106 837.415 583.667 838.956 580.717C840.514 577.751 842.726 575.447 845.593 573.807C848.477 572.15 851.924 571.321 855.934 571.321C859.944 571.321 863.383 572.15 866.25 573.807C869.134 575.447 871.346 577.751 872.887 580.717C874.445 583.667 875.224 587.106 875.224 591.033C875.224 594.944 874.445 598.383 872.887 601.349C871.346 604.299 869.134 606.603 866.25 608.26C863.383 609.901 859.944 610.721 855.934 610.721ZM856.009 601.548C857.467 601.548 858.701 601.101 859.712 600.206C860.723 599.311 861.494 598.068 862.024 596.477C862.571 594.886 862.844 593.047 862.844 590.959C862.844 588.838 862.571 586.982 862.024 585.391C861.494 583.8 860.723 582.557 859.712 581.662C858.701 580.767 857.467 580.32 856.009 580.32C854.5 580.32 853.224 580.767 852.18 581.662C851.153 582.557 850.366 583.8 849.819 585.391C849.289 586.982 849.023 588.838 849.023 590.959C849.023 593.047 849.289 594.886 849.819 596.477C850.366 598.068 851.153 599.311 852.18 600.206C853.224 601.101 854.5 601.548 856.009 601.548ZM906.085 593.519V571.818H918.216V610H906.632V602.891H906.234C905.389 605.227 903.947 607.083 901.909 608.459C899.887 609.818 897.443 610.497 894.576 610.497C891.974 610.497 889.687 609.901 887.715 608.707C885.743 607.514 884.21 605.849 883.116 603.711C882.022 601.557 881.467 599.038 881.451 596.154V571.818H893.606V593.768C893.623 595.839 894.17 597.472 895.247 598.665C896.324 599.858 897.791 600.455 899.647 600.455C900.856 600.455 901.942 600.189 902.903 599.659C903.881 599.112 904.651 598.325 905.215 597.298C905.795 596.254 906.085 594.994 906.085 593.519ZM938.108 588.224V610H925.953V571.818H937.512V578.828H937.934C938.779 576.491 940.221 574.66 942.259 573.335C944.298 571.992 946.726 571.321 949.543 571.321C952.227 571.321 954.556 571.926 956.528 573.136C958.517 574.329 960.058 576.003 961.151 578.157C962.262 580.295 962.809 582.797 962.792 585.664V610H950.637V588.05C950.653 585.929 950.115 584.272 949.021 583.079C947.944 581.886 946.444 581.289 944.521 581.289C943.245 581.289 942.119 581.571 941.141 582.134C940.18 582.681 939.434 583.468 938.904 584.496C938.39 585.523 938.125 586.766 938.108 588.224ZM984.263 610.547C981.446 610.547 978.886 609.818 976.582 608.359C974.279 606.901 972.439 604.714 971.064 601.797C969.688 598.88 969 595.259 969 590.934C969 586.443 969.713 582.747 971.138 579.847C972.563 576.947 974.428 574.801 976.731 573.409C979.051 572.017 981.545 571.321 984.213 571.321C986.219 571.321 987.934 571.669 989.359 572.365C990.784 573.045 991.961 573.923 992.889 575C993.817 576.077 994.521 577.196 995.002 578.356H995.25V559.091H1007.41V610H995.375V603.81H995.002C994.488 604.987 993.759 606.089 992.814 607.116C991.87 608.144 990.685 608.973 989.26 609.602C987.851 610.232 986.185 610.547 984.263 610.547ZM988.489 601.076C989.964 601.076 991.223 600.662 992.267 599.833C993.311 598.988 994.115 597.803 994.679 596.278C995.242 594.754 995.524 592.964 995.524 590.909C995.524 588.821 995.242 587.023 994.679 585.515C994.132 584.007 993.328 582.847 992.267 582.035C991.223 581.223 989.964 580.817 988.489 580.817C986.981 580.817 985.705 581.231 984.661 582.06C983.617 582.888 982.821 584.057 982.275 585.565C981.744 587.073 981.479 588.854 981.479 590.909C981.479 592.964 981.752 594.754 982.299 596.278C982.846 597.803 983.633 598.988 984.661 599.833C985.705 600.662 986.981 601.076 988.489 601.076Z" fill="#201F1F"/>
<path d="M576.713 449.75V438.955L641.557 335.545H649.511V353.656H643.616L591.557 436.895V437.818H676.571V449.75H576.713ZM644.611 481V446.341V441.369V335.545H657.253V481H644.611ZM750.559 482.989C740.332 482.989 731.596 480.053 724.352 474.182C717.155 468.263 711.615 459.717 707.732 448.543C703.897 437.368 701.979 423.945 701.979 408.273C701.979 392.648 703.897 379.272 707.732 368.145C711.615 356.971 717.178 348.424 724.423 342.506C731.714 336.54 740.426 333.557 750.559 333.557C760.692 333.557 769.38 336.54 776.624 342.506C783.916 348.424 789.479 356.971 793.315 368.145C797.197 379.272 799.138 392.648 799.138 408.273C799.138 423.945 797.197 437.368 793.315 448.543C789.479 459.717 783.94 468.263 776.695 474.182C769.498 480.053 760.786 482.989 750.559 482.989ZM750.559 471.057C761.781 471.057 770.54 465.588 776.837 454.651C783.135 443.666 786.283 428.206 786.283 408.273C786.283 395.015 784.839 383.699 781.951 374.324C779.11 364.902 775.014 357.705 769.664 352.733C764.361 347.761 757.993 345.276 750.559 345.276C739.432 345.276 730.696 350.815 724.352 361.895C718.007 372.927 714.835 388.386 714.835 408.273C714.835 421.53 716.255 432.847 719.096 442.222C721.984 451.597 726.08 458.746 731.383 463.67C736.733 468.595 743.125 471.057 750.559 471.057ZM824.565 449.75V438.955L889.408 335.545H897.363V353.656H891.468L839.408 436.895V437.818H924.423V449.75H824.565ZM892.462 481V446.341V441.369V335.545H905.104V481H892.462Z" fill="#F95700"/>
<path d="M420.42 702.32C420.74 702.26 420.91 702.33 420.93 702.53L421.11 703.58C421.15 703.82 421.02 703.96 420.72 704C419.62 704.18 418.52 704.34 417.42 704.48C416.34 704.6 415.07 704.7 413.61 704.78C412.49 704.84 411.29 704.88 410.01 704.9C408.75 704.9 407.53 704.88 406.35 704.84C406.23 704.84 406.12 704.8 406.02 704.72C405.94 704.64 405.9 704.55 405.9 704.45V703.46C405.9 703.34 405.94 703.25 406.02 703.19C406.12 703.11 406.23 703.07 406.35 703.07C406.81 703.11 407.29 703.13 407.79 703.13C408.29 703.13 408.8 703.13 409.32 703.13V689.51H406.62C406.52 689.51 406.42 689.47 406.32 689.39C406.24 689.31 406.2 689.21 406.2 689.09V688.16C406.2 688.04 406.24 687.94 406.32 687.86C406.42 687.78 406.52 687.74 406.62 687.74H419.46C419.76 687.74 419.91 687.87 419.91 688.13V689.12C419.91 689.38 419.76 689.51 419.46 689.51H417.51V702.77C417.97 702.73 418.43 702.67 418.89 702.59C419.37 702.51 419.88 702.42 420.42 702.32ZM422.85 695V686.15C422.85 685.87 422.99 685.73 423.27 685.73H424.41C424.69 685.73 424.83 685.87 424.83 686.15V711.32C424.83 711.6 424.69 711.74 424.41 711.74H423.27C422.99 711.74 422.85 711.6 422.85 711.32V696.8H419.52C419.26 696.8 419.13 696.68 419.13 696.44V695.36C419.13 695.12 419.26 695 419.52 695H422.85ZM413.55 703.01C413.89 702.99 414.22 702.98 414.54 702.98C414.86 702.96 415.17 702.94 415.47 702.92V689.51H411.36V703.1C411.72 703.1 412.08 703.09 412.44 703.07C412.82 703.05 413.19 703.03 413.55 703.01ZM430.14 712.46C430.14 712.74 430 712.88 429.72 712.88H428.58C428.3 712.88 428.16 712.74 428.16 712.46V685.64C428.16 685.36 428.3 685.22 428.58 685.22H429.72C430 685.22 430.14 685.36 430.14 685.64V712.46ZM450.343 696.65C450.343 697.77 450.203 698.9 449.923 700.04C449.663 701.18 449.243 702.21 448.663 703.13C448.083 704.05 447.333 704.81 446.413 705.41C445.513 705.99 444.423 706.28 443.143 706.28C441.823 706.28 440.703 705.99 439.783 705.41C438.883 704.83 438.153 704.08 437.593 703.16C437.053 702.22 436.663 701.18 436.423 700.04C436.183 698.9 436.063 697.77 436.063 696.65C436.063 695.47 436.183 694.31 436.423 693.17C436.663 692.01 437.053 690.97 437.593 690.05C438.153 689.13 438.883 688.39 439.783 687.83C440.703 687.27 441.823 686.99 443.143 686.99C444.423 686.99 445.513 687.27 446.413 687.83C447.333 688.39 448.083 689.13 448.663 690.05C449.243 690.95 449.663 691.98 449.923 693.14C450.203 694.28 450.343 695.45 450.343 696.65ZM448.213 696.62C448.213 695.7 448.113 694.77 447.913 693.83C447.733 692.89 447.443 692.05 447.043 691.31C446.643 690.55 446.123 689.94 445.483 689.48C444.843 689 444.063 688.76 443.143 688.76C442.183 688.76 441.383 689 440.743 689.48C440.123 689.94 439.623 690.55 439.243 691.31C438.863 692.05 438.593 692.89 438.433 693.83C438.273 694.77 438.193 695.7 438.193 696.62C438.193 697.5 438.263 698.41 438.403 699.35C438.563 700.27 438.833 701.12 439.213 701.9C439.593 702.66 440.103 703.29 440.743 703.79C441.383 704.27 442.183 704.51 443.143 704.51C444.063 704.51 444.843 704.27 445.483 703.79C446.123 703.29 446.643 702.66 447.043 701.9C447.443 701.12 447.733 700.27 447.913 699.35C448.113 698.41 448.213 697.5 448.213 696.62ZM457.363 712.46C457.363 712.74 457.223 712.88 456.943 712.88H455.713C455.433 712.88 455.293 712.74 455.293 712.46V685.64C455.293 685.36 455.433 685.22 455.713 685.22H456.943C457.223 685.22 457.363 685.36 457.363 685.64V712.46ZM479.366 704.66C479.306 704.76 479.226 704.82 479.126 704.84C479.046 704.86 478.926 704.81 478.766 704.69C478.286 704.33 477.776 703.92 477.236 703.46C476.696 702.98 476.166 702.48 475.646 701.96C475.126 701.42 474.616 700.87 474.116 700.31C473.616 699.73 473.156 699.16 472.736 698.6C471.736 699.86 470.596 701.07 469.316 702.23C468.036 703.37 466.576 704.51 464.936 705.65C464.836 705.71 464.736 705.76 464.636 705.8C464.536 705.82 464.456 705.79 464.396 705.71L463.676 704.78C463.596 704.68 463.566 704.58 463.586 704.48C463.606 704.36 463.656 704.27 463.736 704.21C466.936 701.95 469.426 699.66 471.206 697.34C473.006 695.02 474.256 692.6 474.956 690.08C475.036 689.8 475.036 689.6 474.956 689.48C474.896 689.34 474.726 689.27 474.446 689.27H465.356C465.116 689.27 464.996 689.14 464.996 688.88V687.83C464.996 687.59 465.136 687.47 465.416 687.47H475.256C476.296 687.47 476.956 687.65 477.236 688.01C477.516 688.37 477.516 689.01 477.236 689.93C476.456 692.49 475.356 694.84 473.936 696.98C474.396 697.62 474.886 698.25 475.406 698.87C475.926 699.49 476.446 700.08 476.966 700.64C477.486 701.18 478.006 701.68 478.526 702.14C479.046 702.58 479.536 702.95 479.996 703.25C480.096 703.33 480.146 703.42 480.146 703.52C480.146 703.62 480.116 703.71 480.056 703.79L479.366 704.66ZM485.576 712.46C485.576 712.74 485.436 712.88 485.156 712.88H483.926C483.646 712.88 483.506 712.74 483.506 712.46V685.64C483.506 685.36 483.646 685.22 483.926 685.22H485.156C485.436 685.22 485.576 685.36 485.576 685.64V712.46ZM516.489 698C516.589 698 516.689 698.04 516.789 698.12C516.889 698.18 516.939 698.27 516.939 698.39V699.41C516.939 699.51 516.889 699.6 516.789 699.68C516.689 699.76 516.589 699.8 516.489 699.8H490.989C490.869 699.8 490.759 699.76 490.659 699.68C490.579 699.6 490.539 699.51 490.539 699.41V698.39C490.539 698.27 490.579 698.18 490.659 698.12C490.759 698.04 490.869 698 490.989 698H516.489ZM513.369 712.34C513.369 712.44 513.319 712.52 513.219 712.58C513.139 712.66 513.059 712.7 512.979 712.7H496.989C496.049 712.7 495.429 712.52 495.129 712.16C494.849 711.82 494.709 711.23 494.709 710.39V708.62C494.709 707.78 494.879 707.22 495.219 706.94C495.579 706.64 496.209 706.49 497.109 706.49H510.039C510.319 706.49 510.489 706.45 510.549 706.37C510.629 706.29 510.669 706.1 510.669 705.8V704.66C510.669 704.36 510.629 704.17 510.549 704.09C510.489 704.01 510.319 703.97 510.039 703.97H495.069C494.969 703.97 494.869 703.94 494.769 703.88C494.689 703.82 494.649 703.74 494.649 703.64V702.59C494.649 702.49 494.689 702.41 494.769 702.35C494.869 702.29 494.969 702.26 495.069 702.26H510.339C510.819 702.26 511.209 702.3 511.509 702.38C511.809 702.44 512.049 702.55 512.229 702.71C512.409 702.87 512.529 703.1 512.589 703.4C512.669 703.68 512.709 704.03 512.709 704.45V706.07C512.709 706.91 512.529 707.48 512.169 707.78C511.829 708.06 511.209 708.2 510.309 708.2H497.379C497.099 708.2 496.919 708.24 496.839 708.32C496.779 708.4 496.749 708.59 496.749 708.89V710.27C496.749 710.55 496.789 710.73 496.869 710.81C496.949 710.91 497.129 710.96 497.409 710.96H512.949C513.049 710.96 513.139 710.99 513.219 711.05C513.319 711.11 513.369 711.19 513.369 711.29V712.34ZM513.129 695.18C513.129 695.28 513.079 695.37 512.979 695.45C512.899 695.51 512.819 695.54 512.739 695.54H497.109C496.169 695.54 495.549 695.37 495.249 695.03C494.969 694.67 494.829 694.07 494.829 693.23V691.61C494.829 690.77 494.999 690.21 495.339 689.93C495.699 689.63 496.329 689.48 497.229 689.48H509.949C510.229 689.48 510.399 689.45 510.459 689.39C510.539 689.31 510.579 689.11 510.579 688.79V687.56C510.579 687.26 510.539 687.07 510.459 686.99C510.399 686.91 510.229 686.87 509.949 686.87H495.249C495.149 686.87 495.049 686.84 494.949 686.78C494.869 686.72 494.829 686.64 494.829 686.54V685.46C494.829 685.36 494.869 685.28 494.949 685.22C495.049 685.16 495.149 685.13 495.249 685.13H510.279C510.759 685.13 511.149 685.17 511.449 685.25C511.749 685.31 511.989 685.42 512.169 685.58C512.349 685.74 512.469 685.97 512.529 686.27C512.609 686.55 512.649 686.9 512.649 687.32V689.06C512.649 689.92 512.469 690.49 512.109 690.77C511.769 691.05 511.149 691.19 510.249 691.19H497.499C497.219 691.19 497.039 691.23 496.959 691.31C496.899 691.39 496.869 691.58 496.869 691.88V693.14C496.869 693.42 496.909 693.61 496.989 693.71C497.069 693.79 497.249 693.83 497.529 693.83H512.709C512.809 693.83 512.899 693.86 512.979 693.92C513.079 693.98 513.129 694.06 513.129 694.16V695.18ZM548.28 706.31C547.82 706.75 547.27 707.19 546.63 707.63C546.01 708.07 545.29 708.5 544.47 708.92C545.57 709.26 546.75 709.59 548.01 709.91C549.29 710.21 550.53 710.48 551.73 710.72C552.01 710.78 552.11 710.92 552.03 711.14L551.64 712.16C551.56 712.36 551.38 712.43 551.1 712.37C549.54 712.09 548.04 711.75 546.6 711.35C545.16 710.95 543.69 710.49 542.19 709.97C539.69 711.05 536.66 712 533.1 712.82C532.8 712.92 532.61 712.86 532.53 712.64L532.14 711.68C532.04 711.4 532.14 711.23 532.44 711.17C535.38 710.53 537.96 709.77 540.18 708.89C542.42 708.01 544.32 707.03 545.88 705.95C546.18 705.73 546.32 705.58 546.3 705.5C546.28 705.4 546.11 705.35 545.79 705.35H533.97C533.71 705.35 533.58 705.22 533.58 704.96V703.91C533.58 703.67 533.71 703.55 533.97 703.55H546.54C548.18 703.55 549.11 703.78 549.33 704.24C549.57 704.7 549.22 705.39 548.28 706.31ZM543.87 700.67C543.81 700.81 543.73 700.9 543.63 700.94C543.55 700.98 543.42 700.97 543.24 700.91C542.16 700.49 541.09 699.98 540.03 699.38C538.99 698.78 537.99 698.09 537.03 697.31C536.01 698.15 534.87 698.95 533.61 699.71C532.35 700.47 530.94 701.18 529.38 701.84C529.28 701.88 529.18 701.91 529.08 701.93C528.98 701.93 528.9 701.88 528.84 701.78L528.3 700.7C528.18 700.5 528.25 700.33 528.51 700.19C529.91 699.55 531.14 698.93 532.2 698.33C533.26 697.71 534.21 697.09 535.05 696.47C535.89 695.83 536.64 695.16 537.3 694.46C537.98 693.74 538.62 692.95 539.22 692.09C539.38 691.85 539.4 691.66 539.28 691.52C539.18 691.38 538.99 691.31 538.71 691.31H529.62C529.38 691.31 529.26 691.18 529.26 690.92V689.87C529.26 689.63 529.38 689.51 529.62 689.51H539.52C540.56 689.51 541.26 689.71 541.62 690.11C542 690.51 541.96 691.13 541.5 691.97C541.1 692.69 540.65 693.39 540.15 694.07C539.65 694.73 539.08 695.38 538.44 696.02C539.34 696.72 540.26 697.34 541.2 697.88C542.16 698.4 543.11 698.82 544.05 699.14C544.33 699.24 544.42 699.42 544.32 699.68L543.87 700.67ZM549.36 701.57C549.36 701.85 549.22 701.99 548.94 701.99H547.71C547.43 701.99 547.29 701.85 547.29 701.57V685.64C547.29 685.36 547.43 685.22 547.71 685.22H548.94C549.22 685.22 549.36 685.36 549.36 685.64V693.62H553.5C553.62 693.62 553.72 693.66 553.8 693.74C553.9 693.8 553.95 693.89 553.95 694.01V695.03C553.95 695.13 553.9 695.22 553.8 695.3C553.72 695.38 553.62 695.42 553.5 695.42H549.36V701.57ZM538.95 685.67C539.25 685.67 539.4 685.81 539.4 686.09V687.05C539.4 687.35 539.25 687.5 538.95 687.5H532.17C531.87 687.5 531.72 687.35 531.72 687.05V686.09C531.72 685.81 531.87 685.67 532.17 685.67H538.95ZM568.543 695.21C567.603 695.21 566.593 695.14 565.513 695C564.433 694.86 563.433 694.6 562.513 694.22C561.593 693.82 560.833 693.29 560.233 692.63C559.633 691.97 559.333 691.11 559.333 690.05C559.333 689.01 559.633 688.16 560.233 687.5C560.833 686.84 561.593 686.32 562.513 685.94C563.433 685.56 564.433 685.3 565.513 685.16C566.593 685 567.603 684.92 568.543 684.92C569.523 684.92 570.553 684.99 571.633 685.13C572.713 685.27 573.703 685.53 574.603 685.91C575.523 686.29 576.273 686.82 576.853 687.5C577.453 688.16 577.753 689.01 577.753 690.05C577.753 691.11 577.453 691.97 576.853 692.63C576.253 693.29 575.493 693.82 574.573 694.22C573.673 694.6 572.683 694.86 571.603 695C570.523 695.14 569.503 695.21 568.543 695.21ZM568.543 686.75C567.903 686.75 567.173 686.79 566.353 686.87C565.553 686.95 564.793 687.11 564.073 687.35C563.353 687.59 562.743 687.93 562.243 688.37C561.763 688.81 561.523 689.38 561.523 690.08C561.523 690.78 561.763 691.35 562.243 691.79C562.743 692.21 563.353 692.54 564.073 692.78C564.793 693.02 565.553 693.18 566.353 693.26C567.173 693.34 567.903 693.38 568.543 693.38C569.183 693.38 569.903 693.34 570.703 693.26C571.523 693.18 572.293 693.02 573.013 692.78C573.733 692.54 574.333 692.21 574.813 691.79C575.313 691.35 575.563 690.78 575.563 690.08C575.563 689.38 575.313 688.81 574.813 688.37C574.313 687.93 573.703 687.59 572.983 687.35C572.263 687.11 571.493 686.95 570.673 686.87C569.873 686.79 569.163 686.75 568.543 686.75ZM581.323 697.04C581.423 697.04 581.523 697.08 581.623 697.16C581.723 697.22 581.773 697.31 581.773 697.43V698.45C581.773 698.55 581.723 698.64 581.623 698.72C581.523 698.8 581.423 698.84 581.323 698.84H555.823C555.703 698.84 555.593 698.8 555.493 698.72C555.413 698.64 555.373 698.55 555.373 698.45V697.43C555.373 697.31 555.413 697.22 555.493 697.16C555.593 697.08 555.703 697.04 555.823 697.04H581.323ZM578.173 712.34C578.173 712.44 578.123 712.52 578.023 712.58C577.943 712.66 577.863 712.7 577.783 712.7H561.823C560.883 712.7 560.263 712.52 559.963 712.16C559.683 711.82 559.543 711.23 559.543 710.39V708.23C559.543 707.39 559.713 706.83 560.053 706.55C560.413 706.25 561.043 706.1 561.943 706.1H574.843C575.123 706.1 575.303 706.06 575.383 705.98C575.463 705.9 575.503 705.71 575.503 705.41V703.73C575.503 703.43 575.463 703.24 575.383 703.16C575.323 703.08 575.153 703.04 574.873 703.04H559.903C559.803 703.04 559.703 703.01 559.603 702.95C559.523 702.89 559.483 702.81 559.483 702.71V701.66C559.483 701.56 559.523 701.48 559.603 701.42C559.703 701.36 559.803 701.33 559.903 701.33H575.173C575.653 701.33 576.043 701.37 576.343 701.45C576.643 701.51 576.883 701.62 577.063 701.78C577.243 701.94 577.363 702.17 577.423 702.47C577.503 702.75 577.543 703.1 577.543 703.52V705.68C577.543 706.52 577.363 707.09 577.003 707.39C576.663 707.67 576.043 707.81 575.143 707.81H562.213C561.933 707.81 561.753 707.85 561.673 707.93C561.613 708.01 561.583 708.2 561.583 708.5V710.27C561.583 710.55 561.623 710.73 561.703 710.81C561.783 710.91 561.963 710.96 562.243 710.96H577.753C577.853 710.96 577.943 710.99 578.023 711.05C578.123 711.11 578.173 711.19 578.173 711.29V712.34ZM604.474 712.7C604.374 712.7 604.284 712.65 604.204 712.55C604.124 712.47 604.084 712.37 604.084 712.25V702.47H592.444C592.324 702.47 592.214 702.43 592.114 702.35C592.034 702.27 591.994 702.18 591.994 702.08V701.06C591.994 700.94 592.034 700.85 592.114 700.79C592.214 700.71 592.324 700.67 592.444 700.67H617.944C618.044 700.67 618.144 700.71 618.244 700.79C618.344 700.85 618.394 700.94 618.394 701.06V702.08C618.394 702.18 618.344 702.27 618.244 702.35C618.144 702.43 618.044 702.47 617.944 702.47H606.154V712.25C606.154 712.37 606.114 712.47 606.034 712.55C605.974 712.65 605.884 712.7 605.764 712.7H604.474ZM606.244 685.88C606.204 686.14 606.154 686.39 606.094 686.63C606.034 686.87 605.974 687.1 605.914 687.32C605.974 687.54 606.044 687.75 606.124 687.95C606.204 688.13 606.294 688.31 606.394 688.49C606.734 689.15 607.234 689.82 607.894 690.5C608.554 691.16 609.314 691.79 610.174 692.39C611.034 692.97 611.964 693.49 612.964 693.95C613.964 694.41 614.994 694.77 616.054 695.03C616.174 695.07 616.254 695.15 616.294 695.27C616.334 695.39 616.334 695.5 616.294 695.6L615.814 696.62C615.754 696.72 615.684 696.79 615.604 696.83C615.544 696.87 615.414 696.87 615.214 696.83C614.154 696.55 613.104 696.17 612.064 695.69C611.024 695.19 610.054 694.62 609.154 693.98C608.254 693.34 607.434 692.65 606.694 691.91C605.974 691.17 605.384 690.42 604.924 689.66C604.064 691.22 602.834 692.63 601.234 693.89C599.634 695.13 597.624 696.23 595.204 697.19C594.884 697.31 594.684 697.27 594.604 697.07L594.034 696.02C593.994 695.92 593.984 695.81 594.004 695.69C594.044 695.57 594.124 695.49 594.244 695.45C595.544 695.01 596.784 694.43 597.964 693.71C599.144 692.97 600.184 692.16 601.084 691.28C601.984 690.4 602.704 689.48 603.244 688.52C603.804 687.56 604.114 686.61 604.174 685.67C604.194 685.43 604.324 685.31 604.564 685.31L605.914 685.46C606.014 685.48 606.104 685.52 606.184 685.58C606.264 685.64 606.284 685.74 606.244 685.88ZM651.865 700.43C651.865 700.71 651.725 700.85 651.445 700.85H650.215C649.935 700.85 649.795 700.71 649.795 700.43V693.59H644.515C644.395 694.43 644.125 695.21 643.705 695.93C643.305 696.65 642.785 697.27 642.145 697.79C641.525 698.29 640.805 698.69 639.985 698.99C639.185 699.27 638.335 699.41 637.435 699.41C636.475 699.41 635.565 699.25 634.705 698.93C633.865 698.59 633.125 698.13 632.485 697.55C631.845 696.95 631.335 696.24 630.955 695.42C630.595 694.6 630.415 693.69 630.415 692.69C630.415 691.63 630.595 690.69 630.955 689.87C631.335 689.03 631.845 688.32 632.485 687.74C633.125 687.16 633.865 686.72 634.705 686.42C635.565 686.1 636.475 685.94 637.435 685.94C638.275 685.94 639.095 686.07 639.895 686.33C640.695 686.59 641.415 686.97 642.055 687.47C642.715 687.97 643.255 688.59 643.675 689.33C644.115 690.05 644.395 690.87 644.515 691.79H649.795V685.64C649.795 685.36 649.935 685.22 650.215 685.22H651.445C651.725 685.22 651.865 685.36 651.865 685.64V700.43ZM635.305 713.21C634.825 713.21 634.435 713.18 634.135 713.12C633.855 713.06 633.635 712.94 633.475 712.76C633.315 712.6 633.205 712.38 633.145 712.1C633.085 711.84 633.055 711.5 633.055 711.08V702.65C633.055 702.55 633.095 702.47 633.175 702.41C633.255 702.35 633.345 702.32 633.445 702.32H634.615C634.715 702.32 634.795 702.36 634.855 702.44C634.935 702.5 634.975 702.57 634.975 702.65V705.77H640.405V702.8C640.405 702.7 640.435 702.61 640.495 702.53C640.575 702.45 640.665 702.41 640.765 702.41H641.935C642.035 702.41 642.125 702.45 642.205 702.53C642.285 702.59 642.325 702.67 642.325 702.77V711.29C642.325 712.05 642.165 712.56 641.845 712.82C641.525 713.08 640.925 713.21 640.045 713.21H635.305ZM642.475 692.66C642.475 691.88 642.335 691.19 642.055 690.59C641.775 689.99 641.395 689.49 640.915 689.09C640.455 688.67 639.925 688.36 639.325 688.16C638.725 687.94 638.095 687.83 637.435 687.83C636.775 687.83 636.145 687.94 635.545 688.16C634.945 688.36 634.415 688.66 633.955 689.06C633.515 689.46 633.165 689.97 632.905 690.59C632.645 691.19 632.515 691.88 632.515 692.66C632.515 693.4 632.635 694.07 632.875 694.67C633.135 695.27 633.485 695.79 633.925 696.23C634.365 696.65 634.885 696.98 635.485 697.22C636.085 697.44 636.735 697.55 637.435 697.55C638.095 697.55 638.725 697.44 639.325 697.22C639.925 696.98 640.455 696.65 640.915 696.23C641.395 695.81 641.775 695.3 642.055 694.7C642.335 694.1 642.475 693.42 642.475 692.66ZM653.485 712.85C652.265 712.09 651.265 711.32 650.485 710.54C649.705 709.76 649.095 708.89 648.655 707.93C648.195 708.89 647.595 709.78 646.855 710.6C646.135 711.44 645.235 712.28 644.155 713.12C644.075 713.16 643.975 713.19 643.855 713.21C643.735 713.23 643.625 713.19 643.525 713.09L642.715 712.28C642.515 712.04 642.555 711.83 642.835 711.65C644.475 710.49 645.695 709.2 646.495 707.78C647.315 706.34 647.705 704.61 647.665 702.59C647.665 702.49 647.695 702.39 647.755 702.29C647.815 702.17 647.905 702.12 648.025 702.14L649.405 702.17C649.625 702.17 649.735 702.3 649.735 702.56C649.735 703.02 649.715 703.46 649.675 703.88C649.635 704.3 649.585 704.71 649.525 705.11C649.805 706.37 650.365 707.51 651.205 708.53C652.065 709.55 653.145 710.42 654.445 711.14C654.725 711.28 654.785 711.48 654.625 711.74L654.055 712.7C653.955 712.82 653.865 712.89 653.785 712.91C653.725 712.95 653.625 712.93 653.485 712.85ZM634.975 707.6V710.66C634.975 710.96 635.025 711.15 635.125 711.23C635.225 711.33 635.415 711.38 635.695 711.38H639.685C639.965 711.38 640.155 711.33 640.255 711.23C640.355 711.15 640.405 710.96 640.405 710.66V707.6H634.975ZM663.218 712.7C662.738 712.7 662.348 712.67 662.048 712.61C661.768 712.55 661.548 712.43 661.388 712.25C661.228 712.09 661.118 711.87 661.058 711.59C660.998 711.33 660.968 710.99 660.968 710.57V702.08C660.968 701.98 661.008 701.9 661.088 701.84C661.168 701.76 661.258 701.72 661.358 701.72H662.678C662.778 701.72 662.858 701.76 662.918 701.84C662.998 701.92 663.038 702 663.038 702.08V705.32H676.958V702.11C676.958 702.01 676.988 701.92 677.048 701.84C677.128 701.76 677.218 701.72 677.318 701.72H678.638C678.738 701.72 678.828 701.76 678.908 701.84C678.988 701.9 679.028 701.98 679.028 702.08V710.78C679.028 711.54 678.868 712.05 678.548 712.31C678.228 712.57 677.628 712.7 676.748 712.7H663.218ZM663.038 707.12V710.18C663.038 710.48 663.088 710.67 663.188 710.75C663.288 710.85 663.478 710.9 663.758 710.9H676.238C676.518 710.9 676.708 710.85 676.808 710.75C676.908 710.67 676.958 710.48 676.958 710.18V707.12H663.038ZM671.078 685.76C671.038 685.88 671.008 686 670.988 686.12C670.988 686.22 670.968 686.32 670.928 686.42C670.988 686.68 671.068 686.93 671.168 687.17C671.288 687.41 671.418 687.63 671.558 687.83C671.978 688.49 672.518 689.12 673.178 689.72C673.838 690.3 674.558 690.83 675.338 691.31C676.138 691.77 676.978 692.17 677.858 692.51C678.758 692.85 679.658 693.11 680.558 693.29C680.678 693.33 680.748 693.4 680.768 693.5C680.788 693.6 680.778 693.7 680.738 693.8L680.228 694.82C680.188 694.92 680.128 695 680.048 695.06C679.988 695.1 679.858 695.1 679.658 695.06C678.638 694.82 677.628 694.49 676.628 694.07C675.648 693.63 674.728 693.13 673.868 692.57C673.008 691.99 672.238 691.37 671.558 690.71C670.878 690.05 670.338 689.39 669.938 688.73C669.138 690.11 667.968 691.32 666.428 692.36C664.888 693.4 662.868 694.34 660.368 695.18C660.048 695.28 659.848 695.23 659.768 695.03L659.258 693.95C659.218 693.85 659.208 693.74 659.228 693.62C659.268 693.5 659.358 693.42 659.498 693.38C660.958 692.94 662.238 692.46 663.338 691.94C664.458 691.42 665.408 690.85 666.188 690.23C666.968 689.61 667.588 688.92 668.048 688.16C668.528 687.38 668.848 686.51 669.008 685.55C669.068 685.29 669.198 685.17 669.398 685.19L670.748 685.34C670.848 685.34 670.938 685.38 671.018 685.46C671.098 685.52 671.118 685.62 671.078 685.76ZM682.778 697.49C682.878 697.49 682.978 697.53 683.078 697.61C683.178 697.67 683.228 697.76 683.228 697.88V698.9C683.228 699 683.178 699.09 683.078 699.17C682.978 699.25 682.878 699.29 682.778 699.29H657.278C657.158 699.29 657.048 699.25 656.948 699.17C656.868 699.09 656.828 699 656.828 698.9V697.85C656.828 697.73 656.868 697.64 656.948 697.58C657.048 697.52 657.158 697.49 657.278 697.49H682.778ZM708.291 712.46C708.291 712.74 708.151 712.88 707.871 712.88H706.641C706.361 712.88 706.221 712.74 706.221 712.46V685.64C706.221 685.36 706.361 685.22 706.641 685.22H707.871C708.151 685.22 708.291 685.36 708.291 685.64V712.46ZM690.081 701.93C690.081 702.23 690.131 702.43 690.231 702.53C690.331 702.63 690.521 702.69 690.801 702.71C691.781 702.75 692.821 702.76 693.921 702.74C695.041 702.7 696.161 702.64 697.281 702.56C698.401 702.46 699.491 702.34 700.551 702.2C701.631 702.06 702.631 701.9 703.551 701.72C703.891 701.64 704.091 701.76 704.151 702.08L704.301 702.92C704.361 703.2 704.231 703.38 703.911 703.46C703.231 703.62 702.351 703.77 701.271 703.91C700.211 704.05 699.061 704.18 697.821 704.3C696.581 704.4 695.311 704.48 694.011 704.54C692.711 704.58 691.501 704.59 690.381 704.57C689.481 704.55 688.861 704.34 688.521 703.94C688.181 703.54 688.011 702.92 688.011 702.08V687.32C688.011 687.04 688.151 686.9 688.431 686.9H689.661C689.941 686.9 690.081 687.04 690.081 687.32V701.93ZM731.194 703.19C731.234 703.47 731.104 703.64 730.804 703.7C730.064 703.88 729.124 704.05 727.984 704.21C726.864 704.37 725.674 704.51 724.414 704.63C723.174 704.75 721.944 704.84 720.724 704.9C719.504 704.96 718.444 704.98 717.544 704.96C716.644 704.94 716.024 704.73 715.684 704.33C715.364 703.93 715.204 703.31 715.204 702.47V689.57C715.204 688.73 715.364 688.17 715.684 687.89C716.004 687.61 716.604 687.47 717.484 687.47H727.804C728.064 687.47 728.194 687.59 728.194 687.83V688.91C728.194 689.15 728.064 689.27 727.804 689.27H717.874C717.594 689.27 717.424 689.31 717.364 689.39C717.304 689.45 717.274 689.63 717.274 689.93V702.32C717.274 702.62 717.324 702.82 717.424 702.92C717.524 703.02 717.714 703.08 717.994 703.1C718.954 703.14 719.964 703.14 721.024 703.1C722.104 703.04 723.184 702.96 724.264 702.86C725.364 702.74 726.434 702.61 727.474 702.47C728.534 702.31 729.534 702.14 730.474 701.96C730.794 701.9 730.984 702.01 731.044 702.29L731.194 703.19ZM735.454 712.46C735.454 712.74 735.314 712.88 735.034 712.88H733.804C733.524 712.88 733.384 712.74 733.384 712.46V685.64C733.384 685.36 733.524 685.22 733.804 685.22H735.034C735.314 685.22 735.454 685.36 735.454 685.64V696.56H739.594C739.714 696.56 739.814 696.6 739.894 696.68C739.994 696.74 740.044 696.83 740.044 696.95V697.97C740.044 698.07 739.994 698.16 739.894 698.24C739.814 698.32 739.714 698.36 739.594 698.36H735.454V712.46ZM743.806 709.88C743.806 709.46 743.946 709.11 744.226 708.83C744.526 708.53 744.886 708.38 745.306 708.38C745.726 708.38 746.076 708.53 746.356 708.83C746.656 709.11 746.806 709.46 746.806 709.88C746.806 710.3 746.656 710.65 746.356 710.93C746.076 711.23 745.726 711.38 745.306 711.38C744.886 711.38 744.526 711.23 744.226 710.93C743.946 710.65 743.806 710.3 743.806 709.88ZM784.907 697.28C785.007 697.28 785.107 697.32 785.207 697.4C785.307 697.46 785.357 697.55 785.357 697.67V698.69C785.357 698.79 785.307 698.88 785.207 698.96C785.107 699.04 785.007 699.08 784.907 699.08H759.407C759.287 699.08 759.177 699.04 759.077 698.96C758.997 698.88 758.957 698.79 758.957 698.69V697.67C758.957 697.55 758.997 697.46 759.077 697.4C759.177 697.32 759.287 697.28 759.407 697.28H771.107V695.03C770.207 694.99 769.267 694.89 768.287 694.73C767.327 694.55 766.447 694.27 765.647 693.89C764.847 693.49 764.187 692.98 763.667 692.36C763.167 691.72 762.917 690.92 762.917 689.96C762.917 688.92 763.217 688.08 763.817 687.44C764.437 686.78 765.207 686.27 766.127 685.91C767.047 685.53 768.037 685.27 769.097 685.13C770.177 684.99 771.187 684.92 772.127 684.92C773.087 684.92 774.097 684.99 775.157 685.13C776.237 685.25 777.237 685.5 778.157 685.88C779.077 686.24 779.837 686.75 780.437 687.41C781.037 688.07 781.337 688.92 781.337 689.96C781.337 690.92 781.077 691.72 780.557 692.36C780.057 692.98 779.407 693.48 778.607 693.86C777.827 694.24 776.957 694.52 775.997 694.7C775.037 694.86 774.097 694.96 773.177 695V697.28H784.907ZM781.757 712.34C781.757 712.44 781.707 712.52 781.607 712.58C781.527 712.66 781.447 712.7 781.367 712.7H765.407C764.467 712.7 763.847 712.52 763.547 712.16C763.267 711.82 763.127 711.23 763.127 710.39V708.17C763.127 707.33 763.297 706.77 763.637 706.49C763.997 706.19 764.627 706.04 765.527 706.04H778.427C778.707 706.04 778.887 706 778.967 705.92C779.047 705.84 779.087 705.65 779.087 705.35V703.91C779.087 703.61 779.047 703.42 778.967 703.34C778.907 703.26 778.737 703.22 778.457 703.22H763.487C763.387 703.22 763.287 703.19 763.187 703.13C763.107 703.07 763.067 702.99 763.067 702.89V701.84C763.067 701.74 763.107 701.66 763.187 701.6C763.287 701.54 763.387 701.51 763.487 701.51H778.757C779.237 701.51 779.627 701.55 779.927 701.63C780.227 701.69 780.467 701.8 780.647 701.96C780.827 702.12 780.947 702.35 781.007 702.65C781.087 702.93 781.127 703.28 781.127 703.7V705.62C781.127 706.46 780.947 707.03 780.587 707.33C780.247 707.61 779.627 707.75 778.727 707.75H765.797C765.517 707.75 765.337 707.79 765.257 707.87C765.197 707.95 765.167 708.14 765.167 708.44V710.27C765.167 710.55 765.207 710.73 765.287 710.81C765.367 710.91 765.547 710.96 765.827 710.96H781.337C781.437 710.96 781.527 710.99 781.607 711.05C781.707 711.11 781.757 711.19 781.757 711.29V712.34ZM772.127 686.72C771.487 686.72 770.757 686.76 769.937 686.84C769.117 686.92 768.347 687.08 767.627 687.32C766.907 687.54 766.297 687.87 765.797 688.31C765.297 688.73 765.047 689.29 765.047 689.99C765.047 690.69 765.297 691.26 765.797 691.7C766.297 692.12 766.907 692.45 767.627 692.69C768.347 692.91 769.117 693.06 769.937 693.14C770.757 693.2 771.487 693.23 772.127 693.23C772.747 693.23 773.467 693.2 774.287 693.14C775.107 693.06 775.877 692.91 776.597 692.69C777.337 692.45 777.957 692.12 778.457 691.7C778.957 691.26 779.207 690.69 779.207 689.99C779.207 689.29 778.957 688.73 778.457 688.31C777.957 687.87 777.337 687.54 776.597 687.32C775.877 687.08 775.107 686.92 774.287 686.84C773.467 686.76 772.747 686.72 772.127 686.72ZM791.43 705.02C790.95 705.02 790.56 704.99 790.26 704.93C789.98 704.87 789.76 704.76 789.6 704.6C789.44 704.42 789.33 704.2 789.27 703.94C789.21 703.66 789.18 703.31 789.18 702.89V687.11C789.18 687.01 789.22 686.93 789.3 686.87C789.38 686.79 789.47 686.75 789.57 686.75H790.86C790.96 686.75 791.04 686.79 791.1 686.87C791.18 686.95 791.22 687.03 791.22 687.11V694.07H800.13V687.14C800.13 687.04 800.16 686.95 800.22 686.87C800.3 686.79 800.39 686.75 800.49 686.75H801.78C801.88 686.75 801.97 686.79 802.05 686.87C802.13 686.93 802.17 687.01 802.17 687.11V703.1C802.17 703.86 802.01 704.37 801.69 704.63C801.37 704.89 800.77 705.02 799.89 705.02H791.43ZM791.22 695.84V702.53C791.22 702.83 791.27 703.03 791.37 703.13C791.47 703.21 791.66 703.25 791.94 703.25H799.41C799.69 703.25 799.88 703.21 799.98 703.13C800.08 703.03 800.13 702.83 800.13 702.53V695.84H791.22ZM809.37 712.46C809.37 712.74 809.23 712.88 808.95 712.88H807.72C807.44 712.88 807.3 712.74 807.3 712.46V685.64C807.3 685.36 807.44 685.22 807.72 685.22H808.95C809.23 685.22 809.37 685.36 809.37 685.64V696.56H813.51C813.63 696.56 813.73 696.6 813.81 696.68C813.91 696.74 813.96 696.83 813.96 696.95V697.97C813.96 698.07 813.91 698.16 813.81 698.24C813.73 698.32 813.63 698.36 813.51 698.36H809.37V712.46ZM841.332 700.55C841.432 700.55 841.532 700.59 841.632 700.67C841.732 700.73 841.782 700.82 841.782 700.94V701.96C841.782 702.06 841.732 702.15 841.632 702.23C841.532 702.31 841.432 702.35 841.332 702.35H815.832C815.712 702.35 815.602 702.31 815.502 702.23C815.422 702.15 815.382 702.06 815.382 701.96V700.94C815.382 700.82 815.422 700.73 815.502 700.67C815.602 700.59 815.712 700.55 815.832 700.55H841.332ZM838.302 711.98C838.302 712.1 838.252 712.19 838.152 712.25C838.052 712.31 837.952 712.34 837.852 712.34H821.802C820.862 712.34 820.242 712.14 819.942 711.74C819.662 711.36 819.522 710.76 819.522 709.94V705.17C819.522 704.89 819.662 704.75 819.942 704.75H821.172C821.452 704.75 821.592 704.89 821.592 705.17V709.91C821.592 710.19 821.632 710.36 821.712 710.42C821.812 710.5 822.002 710.54 822.282 710.54H837.852C837.952 710.54 838.052 710.57 838.152 710.63C838.252 710.71 838.302 710.8 838.302 710.9V711.98ZM838.122 697.4C838.122 697.5 838.072 697.59 837.972 697.67C837.892 697.73 837.812 697.76 837.732 697.76H821.922C820.982 697.76 820.362 697.59 820.062 697.25C819.782 696.89 819.642 696.29 819.642 695.45V693.08C819.642 692.22 819.812 691.65 820.152 691.37C820.512 691.09 821.142 690.95 822.042 690.95H834.792C835.072 690.95 835.242 690.91 835.302 690.83C835.382 690.75 835.422 690.56 835.422 690.26V688.28C835.422 687.98 835.382 687.79 835.302 687.71C835.242 687.63 835.072 687.59 834.792 687.59H820.062C819.962 687.59 819.862 687.56 819.762 687.5C819.682 687.44 819.642 687.36 819.642 687.26V686.18C819.642 686.08 819.682 686 819.762 685.94C819.862 685.88 819.962 685.85 820.062 685.85H835.122C835.602 685.85 835.992 685.89 836.292 685.97C836.592 686.03 836.832 686.14 837.012 686.3C837.192 686.46 837.312 686.69 837.372 686.99C837.452 687.27 837.492 687.62 837.492 688.04V690.5C837.492 691.36 837.312 691.93 836.952 692.21C836.612 692.49 835.992 692.63 835.092 692.63H822.312C822.032 692.63 821.852 692.67 821.772 692.75C821.712 692.83 821.682 693.02 821.682 693.32V695.36C821.682 695.64 821.722 695.83 821.802 695.93C821.882 696.01 822.062 696.05 822.342 696.05H837.702C837.802 696.05 837.892 696.08 837.972 696.14C838.072 696.2 838.122 696.28 838.122 696.38V697.4ZM875.494 707.51C875.494 708.37 875.264 709.14 874.804 709.82C874.344 710.5 873.714 711.07 872.914 711.53C872.134 712.01 871.214 712.37 870.154 712.61C869.114 712.87 867.994 713 866.794 713C865.494 713 864.314 712.87 863.254 712.61C862.194 712.37 861.284 712.01 860.524 711.53C859.764 711.07 859.174 710.5 858.754 709.82C858.334 709.14 858.124 708.37 858.124 707.51C858.124 706.67 858.334 705.92 858.754 705.26C859.174 704.58 859.764 704.01 860.524 703.55C861.284 703.07 862.194 702.71 863.254 702.47C864.314 702.21 865.494 702.08 866.794 702.08C867.994 702.08 869.114 702.21 870.154 702.47C871.214 702.71 872.134 703.06 872.914 703.52C873.714 703.98 874.344 704.55 874.804 705.23C875.264 705.89 875.494 706.65 875.494 707.51ZM867.184 688.67C867.124 688.97 867.064 689.27 867.004 689.57C866.944 689.85 866.874 690.13 866.794 690.41H873.184V685.64C873.184 685.36 873.324 685.22 873.604 685.22H874.834C875.114 685.22 875.254 685.36 875.254 685.64V701.54C875.254 701.82 875.114 701.96 874.834 701.96H873.604C873.324 701.96 873.184 701.82 873.184 701.54V697.58H865.534C865.274 697.58 865.144 697.46 865.144 697.22V696.17C865.144 695.93 865.274 695.81 865.534 695.81H873.184V692.18H866.134C865.274 694.12 863.954 695.87 862.174 697.43C860.394 698.97 858.064 700.34 855.184 701.54C854.864 701.68 854.644 701.62 854.524 701.36L854.074 700.37C853.994 700.21 853.984 700.08 854.044 699.98C854.104 699.88 854.194 699.81 854.314 699.77C857.494 698.45 859.964 696.89 861.724 695.09C863.484 693.27 864.554 691.31 864.934 689.21C865.054 688.63 864.814 688.34 864.214 688.34H855.124C854.884 688.34 854.764 688.21 854.764 687.95V686.9C854.764 686.66 854.884 686.54 855.124 686.54H864.904C865.864 686.54 866.514 686.71 866.854 687.05C867.194 687.39 867.304 687.93 867.184 688.67ZM873.364 707.6C873.364 707 873.184 706.47 872.824 706.01C872.464 705.55 871.974 705.17 871.354 704.87C870.754 704.55 870.054 704.31 869.254 704.15C868.454 703.97 867.624 703.88 866.764 703.88C865.804 703.88 864.924 703.97 864.124 704.15C863.324 704.31 862.634 704.55 862.054 704.87C861.494 705.17 861.054 705.55 860.734 706.01C860.414 706.47 860.254 707 860.254 707.6C860.254 708.18 860.414 708.7 860.734 709.16C861.054 709.6 861.494 709.97 862.054 710.27C862.634 710.57 863.324 710.8 864.124 710.96C864.924 711.12 865.804 711.2 866.764 711.2C867.624 711.2 868.454 711.12 869.254 710.96C870.054 710.8 870.754 710.57 871.354 710.27C871.974 709.97 872.464 709.6 872.824 709.16C873.184 708.7 873.364 708.18 873.364 707.6ZM892.306 706.34V701.12H886.306C885.366 701.12 884.746 700.95 884.446 700.61C884.166 700.25 884.026 699.65 884.026 698.81V695.06C884.026 694.2 884.196 693.63 884.536 693.35C884.896 693.07 885.526 692.93 886.426 692.93H899.956C900.236 692.93 900.406 692.89 900.466 692.81C900.546 692.73 900.586 692.54 900.586 692.24V689.12C900.586 688.82 900.546 688.63 900.466 688.55C900.406 688.47 900.236 688.43 899.956 688.43H884.446C884.346 688.43 884.246 688.4 884.146 688.34C884.066 688.28 884.026 688.2 884.026 688.1V686.96C884.026 686.86 884.066 686.78 884.146 686.72C884.246 686.66 884.346 686.63 884.446 686.63H900.286C900.766 686.63 901.156 686.67 901.456 686.75C901.756 686.81 901.996 686.92 902.176 687.08C902.356 687.24 902.476 687.47 902.536 687.77C902.616 688.05 902.656 688.4 902.656 688.82V692.57C902.656 693.43 902.476 694 902.116 694.28C901.776 694.56 901.156 694.7 900.256 694.7H886.726C886.446 694.7 886.266 694.74 886.186 694.82C886.126 694.9 886.096 695.09 886.096 695.39V698.63C886.096 698.91 886.136 699.1 886.216 699.2C886.296 699.28 886.476 699.32 886.756 699.32H902.866C902.966 699.32 903.056 699.35 903.136 699.41C903.236 699.47 903.286 699.55 903.286 699.65V700.76C903.286 700.86 903.236 700.95 903.136 701.03C903.056 701.09 902.976 701.12 902.896 701.12H894.376V706.34H906.166C906.266 706.34 906.366 706.38 906.466 706.46C906.566 706.52 906.616 706.61 906.616 706.73V707.75C906.616 707.85 906.566 707.94 906.466 708.02C906.366 708.1 906.266 708.14 906.166 708.14H880.666C880.546 708.14 880.436 708.1 880.336 708.02C880.256 707.94 880.216 707.85 880.216 707.75V706.73C880.216 706.61 880.256 706.52 880.336 706.46C880.436 706.38 880.546 706.34 880.666 706.34H892.306ZM920.519 706.34V701.12H914.519C913.579 701.12 912.959 700.95 912.659 700.61C912.379 700.25 912.239 699.65 912.239 698.81V695.06C912.239 694.2 912.409 693.63 912.749 693.35C913.109 693.07 913.739 692.93 914.639 692.93H928.169C928.449 692.93 928.619 692.89 928.679 692.81C928.759 692.73 928.799 692.54 928.799 692.24V689.12C928.799 688.82 928.759 688.63 928.679 688.55C928.619 688.47 928.449 688.43 928.169 688.43H912.659C912.559 688.43 912.459 688.4 912.359 688.34C912.279 688.28 912.239 688.2 912.239 688.1V686.96C912.239 686.86 912.279 686.78 912.359 686.72C912.459 686.66 912.559 686.63 912.659 686.63H928.499C928.979 686.63 929.369 686.67 929.669 686.75C929.969 686.81 930.209 686.92 930.389 687.08C930.569 687.24 930.689 687.47 930.749 687.77C930.829 688.05 930.869 688.4 930.869 688.82V692.57C930.869 693.43 930.689 694 930.329 694.28C929.989 694.56 929.369 694.7 928.469 694.7H914.939C914.659 694.7 914.479 694.74 914.399 694.82C914.339 694.9 914.309 695.09 914.309 695.39V698.63C914.309 698.91 914.349 699.1 914.429 699.2C914.509 699.28 914.689 699.32 914.969 699.32H931.079C931.179 699.32 931.269 699.35 931.349 699.41C931.449 699.47 931.499 699.55 931.499 699.65V700.76C931.499 700.86 931.449 700.95 931.349 701.03C931.269 701.09 931.189 701.12 931.109 701.12H922.589V706.34H934.379C934.479 706.34 934.579 706.38 934.679 706.46C934.779 706.52 934.829 706.61 934.829 706.73V707.75C934.829 707.85 934.779 707.94 934.679 708.02C934.579 708.1 934.479 708.14 934.379 708.14H908.879C908.759 708.14 908.649 708.1 908.549 708.02C908.469 707.94 908.429 707.85 908.429 707.75V706.73C908.429 706.61 908.469 706.52 908.549 706.46C908.649 706.38 908.759 706.34 908.879 706.34H920.519ZM953.39 712.64C952.91 712.64 952.52 712.61 952.22 712.55C951.94 712.49 951.72 712.37 951.56 712.19C951.4 712.03 951.29 711.81 951.23 711.53C951.17 711.27 951.14 710.93 951.14 710.51V701.9C951.14 701.8 951.18 701.72 951.26 701.66C951.34 701.6 951.43 701.57 951.53 701.57H952.85C952.95 701.57 953.03 701.61 953.09 701.69C953.17 701.75 953.21 701.82 953.21 701.9V705.08H966.23V701.96C966.23 701.86 966.26 701.77 966.32 701.69C966.4 701.61 966.49 701.57 966.59 701.57H967.91C968.01 701.57 968.1 701.61 968.18 701.69C968.26 701.75 968.3 701.83 968.3 701.93V710.72C968.3 711.48 968.14 711.99 967.82 712.25C967.5 712.51 966.9 712.64 966.02 712.64H953.39ZM959.66 688.76C959.1 690.3 958.14 691.83 956.78 693.35C957.54 694.13 958.42 694.86 959.42 695.54C960.44 696.2 961.49 696.73 962.57 697.13C962.69 697.17 962.74 697.25 962.72 697.37C962.72 697.47 962.7 697.57 962.66 697.67L962.06 698.72C962 698.82 961.93 698.89 961.85 698.93C961.77 698.97 961.64 698.94 961.46 698.84C960.36 698.34 959.28 697.74 958.22 697.04C957.18 696.34 956.25 695.58 955.43 694.76C954.33 695.8 953.1 696.78 951.74 697.7C950.38 698.6 948.95 699.38 947.45 700.04C947.35 700.08 947.25 700.11 947.15 700.13C947.05 700.15 946.97 700.11 946.91 700.01L946.31 698.96C946.25 698.86 946.24 698.76 946.28 698.66C946.34 698.54 946.42 698.46 946.52 698.42C949.3 697.1 951.56 695.67 953.3 694.13C955.06 692.57 956.42 690.82 957.38 688.88C957.52 688.6 957.54 688.4 957.44 688.28C957.34 688.16 957.15 688.1 956.87 688.1H948.08C947.84 688.1 947.72 687.97 947.72 687.71V686.66C947.72 686.42 947.86 686.3 948.14 686.3H957.68C958.72 686.3 959.39 686.49 959.69 686.87C959.99 687.23 959.98 687.86 959.66 688.76ZM953.21 706.88V710.12C953.21 710.42 953.26 710.61 953.36 710.69C953.46 710.79 953.65 710.84 953.93 710.84H965.51C965.79 710.84 965.98 710.79 966.08 710.69C966.18 710.61 966.23 710.42 966.23 710.12V706.88H953.21ZM966.23 691.4V685.64C966.23 685.36 966.37 685.22 966.65 685.22H967.88C968.16 685.22 968.3 685.36 968.3 685.64V699.59C968.3 699.87 968.16 700.01 967.88 700.01H966.65C966.37 700.01 966.23 699.87 966.23 699.59V693.2H960.68C960.42 693.2 960.29 693.08 960.29 692.84V691.76C960.29 691.52 960.42 691.4 960.68 691.4H966.23ZM999.213 698.93C999.313 698.93 999.413 698.97 999.513 699.05C999.613 699.11 999.663 699.2 999.663 699.32V700.34C999.663 700.44 999.613 700.53 999.513 700.61C999.413 700.69 999.313 700.73 999.213 700.73H973.713C973.593 700.73 973.483 700.69 973.383 700.61C973.303 700.53 973.263 700.44 973.263 700.34V699.29C973.263 699.17 973.303 699.08 973.383 699.02C973.483 698.96 973.593 698.93 973.713 698.93H985.323V694.82C985.323 694.54 985.463 694.4 985.743 694.4H986.973C987.253 694.4 987.393 694.54 987.393 694.82V698.93H999.213ZM987.513 685.85C987.473 686.01 987.433 686.18 987.393 686.36C987.373 686.52 987.343 686.68 987.303 686.84C987.403 687.14 987.523 687.4 987.663 687.62C988.023 688.26 988.513 688.89 989.133 689.51C989.753 690.13 990.463 690.71 991.263 691.25C992.083 691.77 992.973 692.24 993.933 692.66C994.913 693.06 995.933 693.38 996.993 693.62C997.113 693.66 997.183 693.73 997.203 693.83C997.223 693.93 997.213 694.03 997.173 694.13L996.663 695.15C996.623 695.25 996.563 695.33 996.483 695.39C996.423 695.43 996.293 695.43 996.093 695.39C995.033 695.13 994.013 694.78 993.033 694.34C992.053 693.9 991.143 693.4 990.303 692.84C989.463 692.28 988.693 691.67 987.993 691.01C987.313 690.35 986.753 689.67 986.313 688.97C985.433 690.41 984.163 691.72 982.503 692.9C980.863 694.08 978.943 694.99 976.743 695.63C976.423 695.71 976.223 695.66 976.143 695.48L975.693 694.4C975.653 694.3 975.643 694.19 975.663 694.07C975.703 693.95 975.793 693.87 975.933 693.83C977.273 693.47 978.503 693 979.623 692.42C980.743 691.82 981.713 691.16 982.533 690.44C983.373 689.7 984.043 688.92 984.543 688.1C985.043 687.28 985.343 686.46 985.443 685.64C985.483 685.36 985.613 685.24 985.833 685.28L987.183 685.43C987.423 685.47 987.533 685.61 987.513 685.85ZM976.803 704.42C976.803 704.3 976.853 704.21 976.953 704.15C977.053 704.09 977.153 704.06 977.253 704.06H993.183C994.123 704.06 994.733 704.24 995.013 704.6C995.313 704.94 995.463 705.52 995.463 706.34V712.76C995.463 713.04 995.323 713.18 995.043 713.18H993.813C993.533 713.18 993.393 713.04 993.393 712.76V706.49C993.393 706.21 993.343 706.04 993.243 705.98C993.163 705.9 992.983 705.86 992.703 705.86H977.253C977.153 705.86 977.053 705.83 976.953 705.77C976.853 705.69 976.803 705.6 976.803 705.5V704.42ZM1019.93 696.56H1023.74V685.64C1023.74 685.36 1023.88 685.22 1024.16 685.22H1025.3C1025.58 685.22 1025.72 685.36 1025.72 685.64V712.46C1025.72 712.74 1025.58 712.88 1025.3 712.88H1024.16C1023.88 712.88 1023.74 712.74 1023.74 712.46V698.36H1019.93V711.32C1019.93 711.6 1019.79 711.74 1019.51 711.74H1018.37C1018.09 711.74 1017.95 711.6 1017.95 711.32V686.15C1017.95 685.87 1018.09 685.73 1018.37 685.73H1019.51C1019.79 685.73 1019.93 685.87 1019.93 686.15V696.56ZM1015.1 701.36C1015.1 702.18 1014.96 702.94 1014.68 703.64C1014.4 704.34 1014.01 704.95 1013.51 705.47C1013.01 705.99 1012.4 706.4 1011.68 706.7C1010.98 707 1010.2 707.15 1009.34 707.15C1008.46 707.15 1007.66 707 1006.94 706.7C1006.24 706.4 1005.64 705.99 1005.14 705.47C1004.64 704.93 1004.25 704.31 1003.97 703.61C1003.71 702.91 1003.58 702.16 1003.58 701.36C1003.58 700.56 1003.71 699.81 1003.97 699.11C1004.25 698.39 1004.64 697.78 1005.14 697.28C1005.64 696.76 1006.24 696.35 1006.94 696.05C1007.66 695.75 1008.46 695.6 1009.34 695.6C1010.2 695.6 1010.98 695.75 1011.68 696.05C1012.4 696.35 1013.01 696.76 1013.51 697.28C1014.01 697.8 1014.4 698.41 1014.68 699.11C1014.96 699.81 1015.1 700.56 1015.1 701.36ZM1013.12 701.36C1013.12 700.8 1013.03 700.28 1012.85 699.8C1012.69 699.32 1012.44 698.9 1012.1 698.54C1011.78 698.18 1011.39 697.9 1010.93 697.7C1010.47 697.48 1009.94 697.37 1009.34 697.37C1008.14 697.37 1007.2 697.75 1006.52 698.51C1005.86 699.27 1005.53 700.22 1005.53 701.36C1005.53 701.92 1005.61 702.45 1005.77 702.95C1005.95 703.43 1006.2 703.85 1006.52 704.21C1006.86 704.57 1007.26 704.86 1007.72 705.08C1008.2 705.28 1008.74 705.38 1009.34 705.38C1009.94 705.38 1010.47 705.28 1010.93 705.08C1011.39 704.86 1011.78 704.57 1012.1 704.21C1012.44 703.85 1012.69 703.43 1012.85 702.95C1013.03 702.45 1013.12 701.92 1013.12 701.36ZM1016.3 693.11C1016.3 693.37 1016.15 693.5 1015.85 693.5H1002.29C1002.19 693.5 1002.09 693.46 1001.99 693.38C1001.91 693.3 1001.87 693.2 1001.87 693.08V692.12C1001.87 692 1001.91 691.9 1001.99 691.82C1002.09 691.74 1002.19 691.7 1002.29 691.7H1015.85C1016.15 691.7 1016.3 691.83 1016.3 692.09V693.11ZM1013.12 688.31C1013.12 688.59 1012.97 688.73 1012.67 688.73H1005.65C1005.55 688.73 1005.45 688.7 1005.35 688.64C1005.27 688.56 1005.23 688.46 1005.23 688.34V687.32C1005.23 687.2 1005.27 687.1 1005.35 687.02C1005.43 686.94 1005.52 686.9 1005.62 686.9H1012.67C1012.97 686.9 1013.12 687.04 1013.12 687.32V688.31ZM1053.54 696.74C1053.46 696.94 1053.27 696.99 1052.97 696.89C1051.41 696.53 1049.8 696.05 1048.14 695.45C1046.48 694.83 1044.87 694.14 1043.31 693.38C1041.87 694.12 1040.31 694.82 1038.63 695.48C1036.95 696.12 1035.16 696.7 1033.26 697.22C1032.98 697.32 1032.79 697.24 1032.69 696.98L1032.33 696.02C1032.21 695.72 1032.29 695.54 1032.57 695.48C1034.01 695.1 1035.43 694.65 1036.83 694.13C1038.25 693.59 1039.6 693.02 1040.88 692.42C1042.18 691.8 1043.4 691.16 1044.54 690.5C1045.68 689.82 1046.69 689.14 1047.57 688.46C1047.81 688.28 1047.91 688.12 1047.87 687.98C1047.85 687.84 1047.68 687.77 1047.36 687.77H1034.46C1034.2 687.77 1034.07 687.64 1034.07 687.38V686.33C1034.07 686.09 1034.2 685.97 1034.46 685.97H1048.17C1048.95 685.97 1049.56 686.06 1050 686.24C1050.46 686.4 1050.75 686.62 1050.87 686.9C1051.01 687.18 1050.99 687.51 1050.81 687.89C1050.63 688.25 1050.32 688.63 1049.88 689.03C1048.56 690.21 1047 691.32 1045.2 692.36C1046.46 692.92 1047.83 693.45 1049.31 693.95C1050.81 694.45 1052.27 694.87 1053.69 695.21C1053.87 695.25 1053.97 695.3 1053.99 695.36C1054.01 695.42 1053.99 695.51 1053.93 695.63L1053.54 696.74ZM1042.17 712.7C1042.07 712.7 1041.98 712.65 1041.9 712.55C1041.82 712.47 1041.78 712.37 1041.78 712.25V702.53H1030.14C1030.02 702.53 1029.91 702.49 1029.81 702.41C1029.73 702.33 1029.69 702.24 1029.69 702.14V701.12C1029.69 701 1029.73 700.91 1029.81 700.85C1029.91 700.77 1030.02 700.73 1030.14 700.73H1055.64C1055.74 700.73 1055.84 700.77 1055.94 700.85C1056.04 700.91 1056.09 701 1056.09 701.12V702.14C1056.09 702.24 1056.04 702.33 1055.94 702.41C1055.84 702.49 1055.74 702.53 1055.64 702.53H1043.85V712.25C1043.85 712.37 1043.81 712.47 1043.73 712.55C1043.67 712.65 1043.58 712.7 1043.46 712.7H1042.17ZM1066.54 687.32C1066.54 688.64 1066.51 689.87 1066.45 691.01C1066.41 692.15 1066.31 693.23 1066.15 694.25C1066.27 695.07 1066.49 695.92 1066.81 696.8C1067.13 697.66 1067.52 698.54 1067.98 699.44C1068.44 700.32 1068.97 701.19 1069.57 702.05C1070.19 702.89 1070.86 703.68 1071.58 704.42C1071.66 704.5 1071.7 704.6 1071.7 704.72C1071.72 704.84 1071.68 704.94 1071.58 705.02L1070.74 705.83C1070.64 705.93 1070.53 705.98 1070.41 705.98C1070.29 705.96 1070.19 705.9 1070.11 705.8C1069.63 705.28 1069.15 704.71 1068.67 704.09C1068.21 703.47 1067.77 702.83 1067.35 702.17C1066.93 701.49 1066.54 700.81 1066.18 700.13C1065.84 699.45 1065.55 698.8 1065.31 698.18C1064.79 699.84 1064.09 701.33 1063.21 702.65C1062.33 703.95 1061.23 705.23 1059.91 706.49C1059.71 706.65 1059.54 706.66 1059.4 706.52L1058.44 705.62C1058.26 705.48 1058.29 705.3 1058.53 705.08C1059.59 704.08 1060.49 703.02 1061.23 701.9C1061.99 700.78 1062.61 699.52 1063.09 698.12C1063.57 696.72 1063.92 695.14 1064.14 693.38C1064.36 691.6 1064.47 689.56 1064.47 687.26C1064.47 687.12 1064.5 687.02 1064.56 686.96C1064.64 686.88 1064.73 686.84 1064.83 686.84L1066.15 686.9C1066.41 686.9 1066.54 687.04 1066.54 687.32ZM1074.85 695.54V686.15C1074.85 685.87 1074.99 685.73 1075.27 685.73H1076.41C1076.69 685.73 1076.83 685.87 1076.83 686.15V711.32C1076.83 711.6 1076.69 711.74 1076.41 711.74H1075.27C1074.99 711.74 1074.85 711.6 1074.85 711.32V697.34H1070.41C1070.15 697.34 1070.02 697.22 1070.02 696.98V695.9C1070.02 695.66 1070.15 695.54 1070.41 695.54H1074.85ZM1082.14 712.46C1082.14 712.74 1082 712.88 1081.72 712.88H1080.58C1080.3 712.88 1080.16 712.74 1080.16 712.46V685.64C1080.16 685.36 1080.3 685.22 1080.58 685.22H1081.72C1082 685.22 1082.14 685.36 1082.14 685.64V712.46ZM1099.25 699.59C1098.23 699.59 1097.15 699.48 1096.01 699.26C1094.89 699.02 1093.85 698.65 1092.89 698.15C1091.95 697.63 1091.17 696.97 1090.55 696.17C1089.95 695.35 1089.65 694.35 1089.65 693.17C1089.65 691.99 1089.95 691 1090.55 690.2C1091.17 689.38 1091.95 688.72 1092.89 688.22C1093.85 687.7 1094.89 687.33 1096.01 687.11C1097.15 686.89 1098.23 686.78 1099.25 686.78C1100.29 686.78 1101.38 686.89 1102.52 687.11C1103.66 687.33 1104.69 687.7 1105.61 688.22C1106.55 688.72 1107.32 689.38 1107.92 690.2C1108.54 691 1108.85 691.99 1108.85 693.17C1108.85 694.35 1108.54 695.35 1107.92 696.17C1107.32 696.97 1106.55 697.63 1105.61 698.15C1104.69 698.65 1103.66 699.02 1102.52 699.26C1101.38 699.48 1100.29 699.59 1099.25 699.59ZM1099.25 688.7C1098.55 688.7 1097.77 688.76 1096.91 688.88C1096.07 689 1095.27 689.23 1094.51 689.57C1093.77 689.89 1093.14 690.35 1092.62 690.95C1092.12 691.53 1091.87 692.28 1091.87 693.2C1091.87 694.12 1092.12 694.87 1092.62 695.45C1093.14 696.03 1093.77 696.49 1094.51 696.83C1095.27 697.15 1096.07 697.37 1096.91 697.49C1097.77 697.61 1098.55 697.67 1099.25 697.67C1099.91 697.67 1100.67 697.61 1101.53 697.49C1102.39 697.37 1103.19 697.15 1103.93 696.83C1104.69 696.49 1105.33 696.03 1105.85 695.45C1106.37 694.87 1106.63 694.12 1106.63 693.2C1106.63 692.28 1106.37 691.53 1105.85 690.95C1105.33 690.35 1104.69 689.89 1103.93 689.57C1103.19 689.23 1102.39 689 1101.53 688.88C1100.67 688.76 1099.91 688.7 1099.25 688.7ZM1105.37 700.4C1105.47 700.4 1105.56 700.45 1105.64 700.55C1105.72 700.63 1105.76 700.73 1105.76 700.85V706.34H1112.06C1112.16 706.34 1112.26 706.38 1112.36 706.46C1112.46 706.52 1112.51 706.61 1112.51 706.73V707.75C1112.51 707.85 1112.46 707.94 1112.36 708.02C1112.26 708.1 1112.16 708.14 1112.06 708.14H1086.56C1086.44 708.14 1086.33 708.1 1086.23 708.02C1086.15 707.94 1086.11 707.85 1086.11 707.75V706.73C1086.11 706.61 1086.15 706.52 1086.23 706.46C1086.33 706.38 1086.44 706.34 1086.56 706.34H1092.77V700.85C1092.77 700.73 1092.8 700.63 1092.86 700.55C1092.94 700.45 1093.04 700.4 1093.16 700.4H1094.42C1094.52 700.4 1094.61 700.45 1094.69 700.55C1094.77 700.63 1094.81 700.73 1094.81 700.85V706.34H1103.72V700.85C1103.72 700.73 1103.75 700.63 1103.81 700.55C1103.89 700.45 1103.99 700.4 1104.11 700.4H1105.37ZM1120.45 687.5C1120.83 687.5 1121.05 687.54 1121.11 687.62C1121.17 687.68 1121.2 687.9 1121.2 688.28L1120.87 703.79C1120.87 704.13 1120.84 704.33 1120.78 704.39C1120.72 704.43 1120.52 704.45 1120.18 704.45H1119.7C1119.38 704.45 1119.19 704.43 1119.13 704.39C1119.09 704.33 1119.06 704.14 1119.04 703.82L1118.68 688.28C1118.68 688.08 1118.68 687.93 1118.68 687.83C1118.68 687.73 1118.7 687.66 1118.74 687.62C1118.8 687.56 1118.88 687.53 1118.98 687.53C1119.08 687.51 1119.23 687.5 1119.43 687.5H1120.45ZM1118.5 708.56C1118.5 708.16 1118.64 707.82 1118.92 707.54C1119.2 707.24 1119.54 707.09 1119.94 707.09C1120.34 707.09 1120.68 707.24 1120.96 707.54C1121.26 707.82 1121.41 708.16 1121.41 708.56C1121.41 708.96 1121.26 709.3 1120.96 709.58C1120.68 709.86 1120.34 710 1119.94 710C1119.54 710 1119.2 709.86 1118.92 709.58C1118.64 709.3 1118.5 708.96 1118.5 708.56Z" fill="#201F1F"/>
</g>
<defs>
<clipPath id="clip0_0_174">
<rect width="1440" height="1080" fill="white"/>
</clipPath>
</defs>
</svg>
